<svg width="90" height="90" viewBox="0 0 90 90" fill="none" xmlns="http://www.w3.org/2000/svg">
    <path
        d="M41.161 1.60215L1.59501 41.1594C-0.531994 43.2861 -0.531994 46.721 1.59501 48.8477L41.161 88.405C43.288 90.5317 46.723 90.5317 48.85 88.405L65.44 71.8192C67.345 69.9146 67.345 66.8267 65.44 64.9221C63.535 63.0175 60.446 63.0175 58.541 64.9221L45.965 77.4956C45.436 78.025 44.632 78.025 44.103 77.4956L12.507 45.9063C11.977 45.377 11.977 44.5736 12.507 44.0443L44.103 12.455C44.632 11.9257 45.436 11.9257 45.965 12.455L58.541 25.0286C60.446 26.9331 63.535 26.9331 65.44 25.0286C67.345 23.124 67.345 20.036 65.44 18.1314L48.852 1.54744C46.716 -0.533199 43.28 -0.516359 41.161 1.60215Z"
        fill="url(#paint0_linear_0_1)" />
    <path
        d="M41.161 1.60215L1.59501 41.1594C-0.531994 43.2861 -0.531994 46.721 1.59501 48.8477L41.161 88.405C43.288 90.5317 46.723 90.5317 48.85 88.405L65.44 71.8192C67.345 69.9146 67.345 66.8267 65.44 64.9221C63.535 63.0175 60.446 63.0175 58.541 64.9221L45.965 77.4956C45.436 78.025 44.632 78.025 44.103 77.4956L12.507 45.9063C11.977 45.377 11.977 44.5736 12.507 44.0443L44.103 12.455C45.421 11.3178 47.572 9.0145 50.73 8.4758C53.078 8.0754 55.644 8.9566 58.429 11.1193C56.567 9.2575 53.375 6.0669 48.852 1.54744C46.716 -0.533199 43.28 -0.516359 41.161 1.60215Z"
        fill="url(#paint1_linear_0_1)" />
    <path
        d="M69.269 61.2432C71.174 63.1478 74.263 63.1478 76.168 61.2432L88.405 49.0087C90.532 46.882 90.532 43.4471 88.405 41.3207L76.061 29.0233C74.152 27.121 71.062 27.1237 69.156 29.0294C67.251 30.934 67.251 34.0219 69.156 35.9265L77.493 44.2618C78.023 44.7911 78.023 45.5945 77.493 46.1238L69.269 54.3461C67.364 56.2507 67.364 59.3386 69.269 61.2432Z"
        fill="url(#paint2_linear_0_1)" />
    <path
        d="M45.203 55.8818C51.103 55.8818 55.886 51.1 55.886 45.2013C55.886 39.3027 51.103 34.5209 45.203 34.5209C39.304 34.5209 34.521 39.3027 34.521 45.2013C34.521 51.1 39.304 55.8818 45.203 55.8818Z"
        fill="url(#paint3_linear_0_1)" />
    <defs>
        <linearGradient id="paint0_linear_0_1" x1="4152.68" y1="0.000279614" x2="7913.81"
            y2="2295.44" gradientUnits="userSpaceOnUse">
            <stop stop-color="#4285EB" />
            <stop offset="1" stop-color="#2EC7FF" />
        </linearGradient>
        <linearGradient id="paint1_linear_0_1" x1="4656.99" y1="-6.48357e-05" x2="2797.75"
            y2="9603.12" gradientUnits="userSpaceOnUse">
            <stop stop-color="#29CDFF" />
            <stop offset="0.378601" stop-color="#148EFF" />
            <stop offset="1" stop-color="#0A60FF" />
        </linearGradient>
        <linearGradient id="paint2_linear_0_1" x1="1619.93" y1="-427.455" x2="-798.475" y2="3352.38"
            gradientUnits="userSpaceOnUse">
            <stop stop-color="#FA816E" />
            <stop offset="0.414726" stop-color="#F74A5C" />
            <stop offset="1" stop-color="#F51D2C" />
        </linearGradient>
        <linearGradient id="paint3_linear_0_1" x1="1490.09" y1="-727.863" x2="685.191" y2="2489.88"
            gradientUnits="userSpaceOnUse">
            <stop stop-color="#FA8E7D" />
            <stop offset="0.512635" stop-color="#F74A5C" />
            <stop offset="1" stop-color="#F51D2C" />
        </linearGradient>
    </defs>
</svg>
    