<svg width="100" height="100" viewBox="0 0 100 100" fill="none" xmlns="http://www.w3.org/2000/svg">
    <path
        d="M0 87.1059C0 94.2279 5.77301 100 12.894 100H87.106C94.228 100 100 94.2271 100 87.1059V12.8941C100 5.77208 94.227 0 87.106 0H12.894C5.77201 0 0 5.77286 0 12.8941V87.1059Z"
        fill="#563D7C" />
    <path
        d="M41.468 44.2336V30.0721H53.933C55.121 30.0721 56.265 30.171 57.368 30.3689C58.47 30.5668 59.445 30.9201 60.293 31.4289C61.141 31.9377 61.82 32.6444 62.328 33.5489C62.837 34.4534 63.092 35.6123 63.092 37.0257C63.092 39.5697 62.328 41.407 60.802 42.5376C59.276 43.6683 57.325 44.2336 54.951 44.2336H41.468ZM28.154 19.7266V80.2734H57.495C60.209 80.2734 62.851 79.9342 65.424 79.2558C67.996 78.5774 70.286 77.5316 72.292 76.1183C74.299 74.7049 75.896 72.8818 77.084 70.6487C78.271 68.4156 78.864 65.7727 78.864 62.7199C78.864 58.9322 77.946 55.6957 76.108 53.0104C74.271 50.3251 71.487 48.4453 67.756 47.3712C70.469 46.0709 72.519 44.4032 73.904 42.368C75.289 40.3328 75.981 37.7889 75.981 34.7361C75.981 31.9094 75.515 29.5351 74.582 27.6129C73.649 25.6908 72.335 24.1503 70.639 22.9913C68.943 21.8324 66.908 20.9986 64.533 20.4898C62.159 19.981 59.53 19.7266 56.647 19.7266H28.154ZM41.468 69.9279V53.3072H55.969C58.852 53.3072 61.17 53.9714 62.922 55.3C64.675 56.6285 65.551 58.8474 65.551 61.9567C65.551 63.5397 65.282 64.8399 64.745 65.8575C64.208 66.8751 63.487 67.6807 62.583 68.2743C61.678 68.8679 60.633 69.2919 59.445 69.5463C58.258 69.8007 57.014 69.9279 55.714 69.9279H41.468Z"
        fill="white" />
</svg>
    