<svg width="108" height="79" viewBox="0 0 108 79" fill="none" xmlns="http://www.w3.org/2000/svg">
    <path fill-rule="evenodd" clip-rule="evenodd"
        d="M54 0C39.598 0 30.602 8.7756 27 26.3333C32.4 17.5578 38.702 14.2661 45.9 16.4583C50.009 17.7101 52.947 21.3462 56.192 25.3664C61.49 31.9166 67.619 39.5 81 39.5C95.402 39.5 104.398 30.7244 108 13.1667C102.6 21.9422 96.304 25.2339 89.1 23.0417C84.991 21.7899 82.053 18.1538 78.802 14.1336C73.51 7.5768 67.387 0 54 0ZM27 39.5C12.598 39.5 3.602 48.2756 0 65.8333C5.4 57.0511 11.702 53.7661 18.9 55.9583C23.009 57.2101 25.947 60.8462 29.198 64.8664C34.49 71.4166 40.619 79 54.005 79C68.407 79 77.404 70.2244 81.005 52.6667C75.605 61.4422 69.304 64.7339 62.105 62.5417C57.996 61.2899 55.058 57.6538 51.813 53.6336C46.51 47.0834 40.381 39.5 27 39.5Z"
        fill="white" />
</svg>
    