<svg width="10" height="10" viewBox="0 0 10 10" fill="none" xmlns="http://www.w3.org/2000/svg">
    <g clip-path="url(#clip0_82_28)">
        <path fill-rule="evenodd" clip-rule="evenodd"
            d="M0.0151367 0.449219H0.944516V6.61692H4.61979V7.37732H0.0151368L0.0151367 0.449219Z"
            fill="black" />
        <path fill-rule="evenodd" clip-rule="evenodd"
            d="M7.15436 2.26574C7.78803 2.18125 8.46394 2.30798 8.97088 2.73043C9.52005 3.11063 9.81577 3.78654 9.85801 4.42021C9.9425 5.18061 9.85801 5.94101 9.43557 6.57468C9.05537 7.08161 8.46394 7.41957 7.78803 7.46181C7.15436 7.5463 6.43621 7.41957 5.88703 6.99712C5.38009 6.57468 5.12663 5.94101 5.04214 5.30734C4.95765 4.63143 5.04214 3.87103 5.46458 3.2796C5.80254 2.68818 6.47845 2.30798 7.15436 2.26574ZM7.2811 2.98389C7.70354 2.94165 8.16823 3.06838 8.50619 3.36409C8.8019 3.70205 8.97088 4.12449 9.01312 4.54694C9.05537 5.01163 9.01312 5.51856 8.8019 5.94101C8.59068 6.36345 8.21047 6.65916 7.74579 6.74365C7.32334 6.82814 6.85865 6.70141 6.56294 6.44794C6.22498 6.19448 6.01376 5.81427 5.92927 5.43407C5.84478 4.8849 5.88703 4.33572 6.09825 3.82878C6.30947 3.36409 6.77416 3.02614 7.2811 2.98389Z"
            fill="black" />
        <path fill-rule="evenodd" clip-rule="evenodd"
            d="M0.0151367 8.47565H9.98484V9.53176H0.0151367V8.47565Z" fill="#3492FF" />
    </g>
    <defs>
        <clipPath id="clip0_82_28">
            <rect width="10" height="10" fill="white" />
        </clipPath>
    </defs>
</svg>
