<svg width="51" height="52" viewBox="0 0 51 52" fill="none" xmlns="http://www.w3.org/2000/svg">
    <g clip-path="url(#clip0_45_2)">
        <g filter="url(#filter0_d_45_2)">
            <path
                d="M25.5 45C37.9264 45 48 34.9264 48 22.5C48 10.0736 37.9264 0 25.5 0C13.0736 0 3 10.0736 3 22.5C3 34.9264 13.0736 45 25.5 45Z"
                fill="#1A202C" />
            <path
                d="M25.5 44.5C37.6503 44.5 47.5 34.6503 47.5 22.5C47.5 10.3497 37.6503 0.5 25.5 0.5C13.3497 0.5 3.5 10.3497 3.5 22.5C3.5 34.6503 13.3497 44.5 25.5 44.5Z"
                stroke="white" stroke-linecap="round" stroke-linejoin="round" stroke-dasharray="9 9" />
        </g>
        <path
            d="M38.0254 15.6313L38.4819 15.9883L38.125 17.5903L38.1914 20.9937V22.7036C38.1914 24.5076 38.0392 26.5386 37.7349 28.7964V28.896L37.959 29.1367H40.0259L41.1714 28.7964L41.4038 29.1367C41.4038 29.8229 39.9816 30.166 37.1372 30.166C36.8328 30.166 36.6807 30.0138 36.6807 29.7095H36.5811C37.1898 28.1213 37.4941 25.786 37.4941 22.7036L37.4443 16.0962C37.5218 15.7863 37.7155 15.6313 38.0254 15.6313Z"
            fill="white" />
        <path
            d="M14.292 14.0874C14.5312 14.0874 14.9365 14.3218 15.5078 14.7905V15.1934H15.3101V15.3032C14.7681 14.9614 14.3286 14.7905 13.9917 14.7905H13.479C12.1021 15.562 12.5879 18.9116 14.9365 24.8394L15.0391 25.3374C15.0391 26.6851 14.2651 27.8032 12.7173 28.6919L11.9922 28.8896C10.9863 28.6016 10.4834 28.0913 10.4834 27.3589C10.5615 27.0317 10.6592 26.8682 10.7764 26.8682H10.9888C11.2085 27.7373 11.4429 28.1719 11.6919 28.1719C13.2446 28.1719 14.126 27.2271 14.3359 25.3374V24.8394C11.4258 18.1499 11.1743 14.5952 13.5815 14.1753L14.292 14.0874Z"
            fill="white" />
        <path
            d="M23.3788 16.8823C23.5765 16.6953 23.5925 16.3753 23.4146 16.1676C23.2366 15.9598 22.9321 15.9429 22.7345 16.1299L21.6188 17.1852C21.146 17.6324 20.7538 18.0034 20.4845 18.3398C20.2013 18.6936 20 19.0737 20 19.5429C20 20.0121 20.2013 20.3923 20.4845 20.746C20.7538 21.0825 21.146 21.4535 21.6188 21.9006L22.7345 22.9559C22.9321 23.1429 23.2366 23.1261 23.4146 22.9183C23.5925 22.7105 23.5765 22.3905 23.3788 22.2035L22.2895 21.1731C21.7836 20.6946 21.4425 20.3704 21.2215 20.0944C21.0095 19.8295 20.9632 19.6748 20.9632 19.5429C20.9632 19.411 21.0095 19.2564 21.2215 18.9915C21.4425 18.7154 21.7836 18.3912 22.2895 17.9127L23.3788 16.8823Z"
            fill="white" />
        <path
            d="M27.8354 20.3316C28.0134 20.1239 28.3178 20.107 28.5155 20.294L29.6312 21.3493C30.104 21.7965 30.4962 22.1674 30.7655 22.5039C31.0487 22.8577 31.25 23.2378 31.25 23.707C31.25 24.1762 31.0487 24.5564 30.7655 24.9101C30.4962 25.2466 30.104 25.6175 29.6312 26.0647L28.5155 27.12C28.3178 27.307 28.0134 27.2901 27.8354 27.0824C27.6575 26.8746 27.6736 26.5546 27.8713 26.3676L28.9605 25.3372C29.4664 24.8587 29.8075 24.5345 30.0285 24.2585C30.2405 23.9935 30.2868 23.8389 30.2868 23.707C30.2868 23.5751 30.2405 23.4205 30.0285 23.1555C29.8075 22.8795 29.4664 22.5553 28.9605 22.0768L27.8713 21.0464C27.6736 20.8594 27.6575 20.5394 27.8354 20.3316Z"
            fill="white" />
        <path opacity="0.5"
            d="M27.0243 16.1319C27.2813 16.2037 27.4342 16.4809 27.3659 16.7511L24.806 26.8737C24.7377 27.1439 24.4739 27.3047 24.2169 27.2329C23.9598 27.1611 23.8068 26.8838 23.8752 26.6137L26.4351 16.4911C26.5035 16.2209 26.7672 16.0601 27.0243 16.1319Z"
            fill="white" />
    </g>
    <defs>
        <filter id="filter0_d_45_2" x="0" y="0" width="51" height="52" filterUnits="userSpaceOnUse"
            color-interpolation-filters="sRGB">
            <feFlood flood-opacity="0" result="BackgroundImageFix" />
            <feColorMatrix in="SourceAlpha" type="matrix"
                values="0 0 0 0 0 0 0 0 0 0 0 0 0 0 0 0 0 0 127 0" result="hardAlpha" />
            <feOffset dy="4" />
            <feGaussianBlur stdDeviation="1.5" />
            <feComposite in2="hardAlpha" operator="out" />
            <feColorMatrix type="matrix" values="0 0 0 0 0 0 0 0 0 0 0 0 0 0 0 0 0 0 0.25 0" />
            <feBlend mode="normal" in2="BackgroundImageFix" result="effect1_dropShadow_45_2" />
            <feBlend mode="normal" in="SourceGraphic" in2="effect1_dropShadow_45_2" result="shape" />
        </filter>
        <clipPath id="clip0_45_2">
            <rect width="51" height="52" fill="white" />
        </clipPath>
    </defs>
</svg>