<svg width="100" height="100" viewBox="0 0 100 100" fill="none" xmlns="http://www.w3.org/2000/svg">
    <g clip-path="url(#clip0_74_45)">
        <path
            d="M99.0545 55.4367L86.842 49.537L98.4115 44.1261C99.3088 43.7052 99.8354 42.5952 99.2149 41.5604L98.0127 40.1686C97.2367 39.3202 96.3942 38.7013 95.3706 39.1039L86.7753 42.344C86.5877 42.4145 86.3819 42.4234 86.1888 42.3688L82.8615 41.4262C82.6146 41.3564 82.3495 41.4219 82.1635 41.5983L78.6044 44.9768C77.8068 40.4038 75.948 36.1956 73.2788 32.6245L78.482 32.5838C78.706 32.5818 78.9118 32.4594 79.02 32.2629L80.8617 28.9224C80.9574 28.7484 81.1089 28.6116 81.2915 28.534L89.8055 24.9037C90.3284 24.6808 90.6501 23.5944 90.5497 22.8898L90.2726 20.3473C90.0462 19.6171 89.0211 18.9745 88.5309 19.1555L75.7238 23.6196L80.0786 11.6126C80.4154 10.6804 80.003 9.52357 78.8325 9.23014L76.9981 9.09642C75.8494 9.04527 74.8161 9.20301 74.3769 10.2119L70.59 18.5806C70.5074 18.7632 70.3683 18.9147 70.1931 19.0128L67.1739 20.6991C66.9499 20.8243 66.8088 21.058 66.8018 21.3142L66.6739 26.2216C63.0315 23.6621 58.7778 21.9172 54.1708 21.2541L57.8237 17.5435C57.9811 17.3834 58.04 17.1513 57.9776 16.9362L56.9176 13.2716C56.8625 13.0809 56.8726 12.8771 56.9466 12.693L60.4003 4.10548C60.6127 3.57838 60.072 2.58228 59.5023 2.15524L57.509 0.553369C56.8323 0.19758 55.6529 0.467713 55.4343 0.942104L49.5346 13.1554L44.1237 1.58585C43.7028 0.688198 42.5931 0.161869 41.558 0.782026L40.1662 1.98468C39.3178 2.7606 38.6988 3.60281 39.1019 4.62679L42.3416 13.2221C42.4126 13.4101 42.4211 13.6155 42.3664 13.8085L41.4242 17.1362C41.3541 17.3827 41.4196 17.6478 41.5963 17.8339L44.9745 21.3929C40.4015 22.191 36.1932 24.0493 32.6221 26.7186L32.581 21.5157C32.5795 21.2913 32.4566 21.0859 32.2605 20.9774L28.9196 19.1357C28.746 19.0399 28.6092 18.8888 28.5313 18.7063L24.9013 10.1914C24.6784 9.66857 23.5921 9.34688 22.8871 9.44766L20.3446 9.72439C19.6148 9.95112 18.9718 10.9763 19.1528 11.4661L23.6172 24.2739L11.6102 19.9192C10.6777 19.582 9.52083 19.9947 9.22739 21.1652L9.09368 22.9995C9.04252 24.1479 9.20026 25.1816 10.2091 25.6203L18.5779 29.4073C18.7608 29.4902 18.9124 29.6294 19.01 29.8045L20.6968 32.8238C20.8216 33.0474 21.0556 33.1889 21.3118 33.1954L26.2189 33.3233C23.6598 36.9658 21.9146 41.2194 21.2518 45.8265L17.5408 42.1736C17.3811 42.0162 17.149 41.9577 16.9335 42.0197L13.269 43.0797C13.0783 43.1351 12.8748 43.1247 12.6907 43.0506L4.1032 39.597C3.57572 39.385 2.58 39.9256 2.15297 40.495L0.550701 42.4887C0.194904 43.165 0.465435 44.3444 0.939826 44.563L13.1523 50.4627L1.58279 55.8736C0.685138 56.2945 0.15881 57.4045 0.778966 58.4394L1.98162 59.8312C2.75754 60.6796 3.60014 61.2985 4.62373 60.8959L13.219 57.6557C13.4066 57.5852 13.612 57.5763 13.8054 57.6309L17.1328 58.5735C17.3793 58.6433 17.6448 58.5774 17.8308 58.4014L21.3899 55.023C22.1875 59.596 24.0463 63.8043 26.7155 67.3753L21.5123 67.416C21.2883 67.4176 21.0825 67.5405 20.9743 67.737L19.1326 71.0774C19.0365 71.2515 18.8853 71.3879 18.7028 71.4662L10.1887 75.0962C9.6659 75.319 9.34382 76.4054 9.4446 77.11L9.72133 79.6525C9.94806 80.3827 10.9732 81.0253 11.4634 80.8443L24.2705 76.3802L19.9157 88.3873C19.5789 89.3194 19.9913 90.4763 21.1617 90.7697L22.9961 90.9034C24.1445 90.9546 25.1781 90.7968 25.6169 89.7879L29.4038 81.4192C29.4868 81.2366 29.6259 81.0851 29.8011 80.987L32.8203 79.3007C33.0439 79.1755 33.1854 78.9418 33.192 78.6856L33.3203 73.7782C36.9627 76.3377 41.2164 78.0826 45.8234 78.7457L42.1701 82.4563C42.0132 82.6164 41.9542 82.8485 42.0166 83.0637L43.0766 86.7282C43.1317 86.9189 43.1212 87.1227 43.0472 87.3068L39.5935 95.8943C39.3815 96.4214 39.9222 97.4175 40.4919 97.8446L42.4852 99.4465C43.1615 99.8023 44.3409 99.5322 44.5598 99.0578L50.4591 86.8445L55.8704 98.414C56.2913 99.3117 57.4009 99.838 58.4361 99.2179L59.8275 98.0152C60.6759 97.2393 61.2952 96.3967 60.8922 95.3731L57.6524 86.7778C57.5815 86.5898 57.573 86.3844 57.6276 86.1914L58.5698 82.8636C58.6396 82.6172 58.5741 82.3521 58.3977 82.166L55.0196 78.6066C59.5922 77.8089 63.8009 75.9505 67.3719 73.2809L67.413 78.4845C67.4146 78.7085 67.5374 78.9144 67.7336 79.0225L71.0744 80.8642C71.2481 80.9599 71.3849 81.1111 71.4628 81.2936L75.0928 89.8085C75.3156 90.3313 76.402 90.653 77.107 90.5522L79.6491 90.2755C80.3793 90.0488 81.0219 89.0236 80.8413 88.5338L76.3768 75.726L88.3839 80.0807C89.3164 80.4179 90.4732 80.0052 90.7667 78.8346L90.9004 77.0003C90.9516 75.8519 90.7934 74.8182 89.7849 74.3795L81.4162 70.5925C81.2332 70.5096 81.0817 70.3705 80.9836 70.1953L79.2973 67.1761C79.1721 66.9524 78.9384 66.811 78.6822 66.8044L73.7747 66.6765C76.3343 63.034 78.0791 58.7804 78.7422 54.1733L82.4532 57.8262C82.6129 57.9836 82.8451 58.0421 83.0602 57.9801L86.7251 56.9201C86.9154 56.8647 87.1193 56.8751 87.3034 56.9492L95.8909 60.4028C96.4184 60.6148 97.414 60.0742 97.8411 59.5049L99.443 57.5112C99.7992 56.8349 99.5289 55.6553 99.0545 55.4367ZM70.8232 46.7602H64.6472C64.198 44.7188 63.3337 42.8345 62.1462 41.1981L66.475 36.8692C68.7117 39.6722 70.2515 43.0556 70.8232 46.7602ZM58.0646 37.3508C56.3667 36.2652 54.4374 35.5106 52.3646 35.182V29.061C56.1027 29.4788 59.544 30.8737 62.4294 32.9859L58.0646 37.3508ZM57.3127 49.9992C57.3127 54.0393 54.0377 57.3147 49.9973 57.3147C45.9572 57.3147 42.6818 54.0393 42.6818 49.9992C42.6818 45.9591 45.9572 42.6838 49.9973 42.6838C54.0377 42.6838 57.3127 45.9591 57.3127 49.9992ZM46.758 29.1727V35.3487C44.7167 35.7983 42.8323 36.6626 41.1963 37.8497L36.8671 33.5209C39.6704 31.2841 43.0535 29.7444 46.758 29.1727ZM37.3487 41.9313C36.2634 43.6296 35.5084 45.5589 35.1802 47.6313H29.0589C29.4771 43.8932 30.872 40.4519 32.9838 37.5665L37.3487 41.9313ZM29.1713 53.2383H35.3473C35.7965 55.2796 36.6609 57.164 37.8484 58.8003L33.5191 63.1291C31.2828 60.3262 29.7431 56.9428 29.1713 53.2383ZM41.9299 62.6477C43.6283 63.7333 45.5576 64.4878 47.63 64.8165V70.9374C43.8923 70.5196 40.4506 69.1248 37.5652 67.0124L41.9299 62.6477ZM53.237 70.8258V64.6498C55.2779 64.2002 57.1627 63.3359 58.7987 62.1488L63.1275 66.4776C60.3245 68.7143 56.9415 70.2541 53.237 70.8258ZM62.6463 58.0672C63.7316 56.3688 64.4862 54.4395 64.8148 52.3671H70.9361C70.5179 56.1052 69.1231 59.5465 67.0112 62.432L62.6463 58.0672Z"
            fill="#E16426" />
    </g>
    <defs>
        <clipPath id="clip0_74_45">
            <rect width="100" height="100" fill="white" />
        </clipPath>
    </defs>
</svg>
