<svg width="100" height="100" viewBox="0 0 100 100" fill="none" xmlns="http://www.w3.org/2000/svg">
    <path
        d="M49.9821 2.5835L52.502 7.31655C53.0686 8.18998 53.6824 8.96309 54.4053 9.68308C56.5248 11.7761 58.5004 14.0101 60.3187 16.3695C64.5884 21.976 67.4684 28.2022 69.5251 34.9359C70.7585 39.0493 71.4284 43.2689 71.4785 47.5357C71.6851 60.2919 67.312 71.2452 58.4951 80.3484C57.0609 81.792 55.5115 83.1163 53.8624 84.3084C52.9889 84.3084 52.5758 83.6385 52.2158 83.0218C51.5602 81.8782 51.1239 80.6223 50.9293 79.3186C50.6194 77.7753 50.4158 76.2321 50.5162 74.6386V73.9186C50.4453 73.7652 49.6752 2.94644 49.9821 2.5835Z"
        fill="#599636" />
    <path
        d="M49.9818 2.42708C49.8785 2.22052 49.7752 2.37691 49.6719 2.47724C49.7221 3.51001 49.3621 4.43066 48.7985 5.30999C48.1788 6.18342 47.3585 6.85325 46.5352 7.57324C41.9615 11.5332 38.3616 16.3164 35.4787 21.6662C31.6426 28.8661 29.6656 36.5824 29.105 44.7059C28.8483 47.636 30.0315 57.9755 30.9551 60.9588C33.4751 68.8787 38.0016 75.515 43.8648 81.2749C45.3048 82.6618 46.8451 83.9483 48.4385 85.1847C48.9018 85.1847 48.9519 84.7716 49.0582 84.4647C49.2613 83.808 49.4161 83.1374 49.5214 82.4582L50.5542 74.7448L49.9818 2.42708Z"
        fill="#6CAC48" />
    <path
        d="M52.5017 87.442C52.605 86.2617 53.1715 85.2821 53.7882 84.3053C53.1686 84.0486 52.7083 83.5381 52.3483 82.9686C52.0378 82.4294 51.7809 81.8612 51.5811 81.2719C50.8611 79.112 50.7076 76.8458 50.5011 74.6386V73.3019C50.2444 73.5084 50.1912 75.2553 50.1912 75.515C50.0411 77.8478 49.7315 80.1676 49.2647 82.4582C49.1113 83.3847 49.008 84.3083 48.4385 85.1316C48.4385 85.2348 48.4385 85.3381 48.4886 85.4916C49.4152 88.2181 49.669 90.9948 49.8253 93.8246V94.8573C49.8253 96.0908 49.7752 95.8311 50.7991 96.2442C51.2122 96.3976 51.6725 96.4508 52.0856 96.7576C52.3955 96.7576 52.4456 96.5009 52.4456 96.2944L52.2922 94.5977V89.8646C52.242 89.0384 52.3955 88.2181 52.4988 87.445L52.5017 87.442Z"
        fill="#C2BFBF" />
</svg>