<svg width="100" height="100" viewBox="0 0 100 100" fill="none" xmlns="http://www.w3.org/2000/svg">
    <path
        d="M63.137 46.6833L41.2176 53.2226L22.1479 60.9121L16.8129 62.1989C15.4542 63.3797 14.0295 64.5756 12.4887 65.7865C10.7988 67.1185 9.22487 68.3296 8.0152 69.2074C6.67329 70.1763 4.68511 71.9927 3.67455 73.1429C2.16678 74.8685 0.973929 76.7 0.460285 78.1079C-0.451026 80.651 -0.00347242 83.2242 1.75268 85.6009C4.0059 88.6282 8.49592 91.716 13.7312 93.8201C16.3988 94.895 20.8886 96.2724 24.2684 97.0443C29.8849 98.3461 40.7536 99.7539 46.7344 99.966C47.9437 100.011 49.5675 100.011 49.6336 99.966C49.7664 99.89 50.6942 98.2705 51.7713 96.2574C55.4494 89.4002 58.1002 82.9669 59.5415 77.4723C60.403 74.1423 61.0822 69.7071 61.5294 64.4547C61.6456 62.9863 61.6951 58.0668 61.5957 56.4016C61.4464 53.677 61.1813 51.4671 60.7675 49.3025C60.7012 48.9845 60.6844 48.6969 60.7177 48.6818C60.7838 48.6364 60.9825 48.5759 63.6832 47.8643L63.137 46.6833ZM58.1335 49.3627C58.3323 49.3627 58.8623 54.0097 58.9948 56.9465C59.0281 57.567 59.0112 57.9757 58.9783 57.9757C58.8459 57.9757 56.1782 56.5379 54.2732 55.448C52.6163 54.4943 49.4685 52.587 48.9716 52.2237C48.8055 52.1178 48.822 52.1027 50.1808 51.6788C52.4836 50.9672 57.9512 49.3627 58.1335 49.3627ZM46.9666 52.7232C47.1158 52.7232 47.4966 52.9198 48.4079 53.4346C51.8209 55.3872 56.46 57.7487 58.4482 58.5359C59.061 58.7781 59.1271 58.6871 57.7192 59.5653C54.7038 61.4422 50.9426 63.2888 46.3367 65.1507C45.525 65.4837 44.8458 65.741 44.8293 65.741C44.7964 65.741 44.8954 65.3628 45.0278 64.9086C46.1379 61.1392 46.7676 57.3247 46.8009 54.267C46.8175 52.7532 46.8175 52.7532 46.9666 52.7081C46.9333 52.7232 46.9499 52.7232 46.9666 52.7232ZM44.6638 53.5254C44.7629 53.6161 44.6967 57.0069 44.5642 57.9302C44.2659 60.1403 43.802 62.1988 43.0402 64.515C42.8579 65.0747 42.6919 65.5443 42.6592 65.5744C42.5925 65.65 40.3227 63.6217 39.5772 62.8346C38.2848 61.4722 37.2744 60.1099 36.5288 58.7779C36.1478 58.0967 35.5514 56.7648 35.601 56.7193C35.8661 56.5528 44.5974 53.4649 44.6638 53.5254ZM33.8281 57.4155C33.8446 57.4155 33.8612 57.4156 33.8779 57.4306C33.911 57.4609 34.0271 57.7032 34.1266 57.9756C34.6566 59.2925 35.8492 61.23 36.8767 62.4713C38.0034 63.8337 39.4781 65.2868 40.7038 66.2404C41.1016 66.5431 41.4659 66.8306 41.5154 66.8761C41.6151 66.967 41.6481 66.9517 38.9474 67.8904C35.8164 68.9802 32.4033 70.07 28.4931 71.2204C27.5591 71.4955 26.6259 71.773 25.6936 72.053C25.5442 72.0985 25.594 72.0227 26.0247 71.4022C27.9631 68.632 30.9121 63.1979 32.569 59.3531C32.8507 58.687 33.1323 58.0211 33.1821 57.8697C33.2485 57.6576 33.3312 57.582 33.5464 57.476C33.6624 57.446 33.7786 57.4155 33.8281 57.4155ZM30.5148 58.6719C30.5644 58.7024 29.7194 60.3218 28.891 61.8053C27.2839 64.6661 25.5277 67.4818 23.1751 70.9027C22.7775 71.493 22.3965 72.038 22.3467 72.0986C22.2639 72.2046 22.2307 72.1742 21.9657 71.705C21.4023 70.6908 20.9383 69.3889 20.6898 68.193C20.4412 67.0123 20.491 64.9538 20.7728 63.6823C20.9879 62.7439 20.9716 62.7591 21.4685 62.5319C23.5893 61.5481 30.4485 58.6114 30.5148 58.6719ZM59.0944 59.7317V60.3674C59.0944 63.7429 58.6968 68.3748 58.1167 71.7505C58.0173 72.3408 57.9341 72.825 57.9179 72.8403C57.9179 72.8403 57.4374 72.7194 56.8741 72.5678C54.3891 71.8563 51.6884 70.8118 49.2529 69.5859C47.6456 68.7836 45.3097 67.4665 45.3761 67.406C45.3923 67.3909 46.0883 67.0579 46.9001 66.6643C50.1478 65.1204 53.2622 63.4553 55.9628 61.8054C56.9736 61.1847 58.4975 60.1859 58.8292 59.9133L59.0944 59.7317ZM18.0058 64.2119C18.072 64.2119 18.0555 64.333 17.956 64.878C17.8898 65.2717 17.807 65.9982 17.774 66.4975C17.6412 68.7076 18.0391 70.3425 19.2319 72.5827C19.5632 73.2034 19.8286 73.718 19.8117 73.733C19.6957 73.824 8.72794 76.7607 5.28157 77.6234C4.25443 77.8806 3.35994 78.1078 3.29331 78.1227C3.17757 78.1531 3.1609 78.1381 3.21056 77.8805C3.59158 75.6555 5.44729 72.7492 8.03178 70.2969C9.75496 68.6622 11.1302 67.7086 13.4828 66.4823C15.1727 65.6046 17.7739 64.2878 17.9726 64.2271C17.9728 64.2119 17.9893 64.2119 18.0058 64.2119ZM43.8518 68.4352C43.8684 68.4201 44.2659 68.617 44.7464 68.8742C48.292 70.7513 53.2292 72.4921 57.4372 73.3851L57.8185 73.4609L57.2882 73.733C55.0847 74.8533 47.8446 77.6081 40.4388 80.1362C39.3617 80.4993 38.3015 80.8627 38.1024 80.9383C37.9037 81.0139 37.7214 81.0594 37.7214 81.0444C37.7214 81.029 38.0197 80.4993 38.4005 79.8485C40.4715 76.3065 42.5593 71.9925 43.6195 68.9953C43.7525 68.7077 43.8351 68.4505 43.8518 68.4352ZM41.2176 69.2224C41.2343 69.2378 41.1017 69.5554 40.9359 69.9187C39.4946 73.1126 37.6056 76.5943 35.1867 80.4996C34.5739 81.4987 34.0601 82.301 34.0434 82.301C34.027 82.301 33.5298 82.0284 32.9335 81.6954C29.4209 79.7275 26.3062 77.3057 24.2685 74.9594L23.9702 74.6264L25.4777 74.2479C30.8789 72.9009 35.4681 71.4477 40.0245 69.6616C40.6707 69.4193 41.201 69.2224 41.2176 69.2224ZM57.5867 74.4447C57.6032 74.7929 56.7582 77.9111 56.0622 80.1663C55.4824 82.0585 54.9851 83.542 54.0742 86.1605C53.6766 87.3112 53.3288 88.2646 53.312 88.2646C53.2955 88.2646 53.1962 88.2495 53.0968 88.2194C48.1761 87.4018 43.769 86.2666 39.627 84.753C38.4671 84.329 36.8104 83.6478 36.711 83.5722C36.678 83.5416 37.6721 83.1181 38.9312 82.6185C46.4697 79.6062 54.2897 76.1852 56.9736 74.7171C57.2882 74.5354 57.5369 74.4447 57.5867 74.4447ZM19.7952 75.6255C19.8284 75.6556 17.7242 78.4258 14.775 82.1948C13.7478 83.5118 12.555 85.0557 12.1078 85.6309C11.6603 86.2061 10.9811 87.1144 10.6001 87.6593L9.90392 88.6433L9.15832 88.0681C8.28015 87.4019 6.75611 85.9791 6.07683 85.192C4.65187 83.5725 3.69113 81.862 3.31004 80.303C3.12774 79.5763 3.12774 79.2128 3.29323 79.1677C3.54168 79.1071 7.96538 78.1534 12.1076 77.2753C14.4106 76.7911 17.0778 76.2159 18.0388 76.004C18.9998 75.7917 19.7788 75.6255 19.7952 75.6255ZM21.9159 76.3672L22.4458 76.9121C24.8319 79.3491 27.2674 81.1507 30.2164 82.7246C30.7467 82.9973 31.1442 83.2393 31.1109 83.2547C30.9952 83.3303 20.872 86.6147 16.1833 88.0982C13.5492 88.9459 11.3786 89.627 11.3623 89.627C11.3458 89.627 11.1965 89.5363 11.0306 89.4303L10.7326 89.2334L11.2129 88.5978C12.7702 86.5391 14.7256 84.2838 18.9834 79.5914L21.9159 76.3672ZM35.1372 85.0103C35.1535 84.9952 35.8825 85.2372 36.7771 85.5403C38.9312 86.2819 40.6374 86.7511 42.924 87.2809C45.7406 87.9319 49.8163 88.5677 52.2188 88.7492C52.5832 88.7794 52.782 88.8098 52.7157 88.8553C52.5995 88.9158 50.1643 89.6576 48.375 90.1722C45.525 90.9895 36.827 93.3357 29.736 95.1976C28.4271 95.5457 27.3004 95.8334 27.2341 95.8484C27.0687 95.8788 26.5218 95.7424 26.5218 95.6819C26.5218 95.6518 26.9193 95.1826 27.3999 94.6678C29.7855 92.0642 32.1549 89.158 34.1266 86.403C34.6731 85.6459 35.1372 85.0254 35.1372 85.0103ZM32.221 85.0861C32.2375 85.1012 31.0613 86.8267 29.0071 89.7935C28.1288 91.0499 27.1513 92.4728 26.8033 92.9723C26.4719 93.4567 25.9749 94.2137 25.6934 94.6374L25.2128 95.4095L24.9644 95.3489C24.3677 95.1975 20.1762 93.8502 19.066 93.4416C17.6908 92.942 16.2661 92.3366 15.2056 91.822C13.8803 91.171 12.2237 90.2022 12.3561 90.1721C12.3891 90.157 14.6591 89.5967 17.3925 88.9157C24.6494 87.1142 28.6754 86.0699 31.3099 85.3131C31.7904 85.1768 32.2045 85.0708 32.221 85.0861ZM52.8481 89.5059H52.8646C52.931 89.6574 50.2471 96.469 49.2692 98.6184C49.0542 99.1027 48.9716 99.2241 48.8553 99.2086C48.5736 99.1938 44.6804 98.6942 42.3108 98.3762C38.1856 97.8011 31.2602 96.6959 29.5207 96.3328L29.123 96.2572L31.5913 95.7422C36.8933 94.6523 39.4447 94.0621 42.0292 93.3355C45.2931 92.4273 48.5241 91.292 51.7878 89.8995C52.3014 89.6875 52.7322 89.521 52.8481 89.5059Z"
        fill="url(#paint0_linear_74_25)" />
    <path
        d="M40.5385 0.000775298C40.174 -0.0443869 34.2921 1.89312 30.4982 3.30068C25.3786 5.20817 21.4026 7.02471 18.9503 8.59862C18.0393 9.18921 16.8959 10.2335 16.7139 10.6422C16.6476 10.7936 16.6144 10.9752 16.6144 11.1568L18.8345 13.0792L24.1196 14.6232L36.6947 16.6819L51.0755 18.9373L51.2247 17.8021C51.1752 17.8021 51.1419 17.787 51.0925 17.787L49.2034 17.5144L48.8226 16.8939C46.8675 13.7453 44.7136 9.83991 43.4545 7.20606C42.4772 5.16252 41.5492 2.80139 41.0355 1.10596C40.7538 0.07665 40.7205 0.0158526 40.5385 0.000775298ZM40.2731 0.772999H40.2901C40.3064 0.787937 40.3727 1.21206 40.439 1.71128C40.7205 3.83076 41.2345 5.87395 42.0462 8.08403C42.659 9.74917 42.659 9.65843 41.9467 9.46151C40.2569 9.03781 32.6854 7.84196 27.2014 7.14568C26.3232 7.03965 25.5776 6.93376 25.5776 6.91868C25.5114 6.85816 29.5373 4.9356 31.3101 4.17894C33.5799 3.22509 39.8094 0.848595 40.2731 0.772999ZM24.3017 7.5543L24.9481 7.75087C28.4602 8.8409 37.2908 10.3849 42.162 10.7482C42.7085 10.7936 43.1727 10.8391 43.189 10.8391C43.2055 10.8542 42.7419 11.0813 42.1452 11.3385C39.7929 12.4132 37.2082 13.7302 35.4188 14.7444C34.8888 15.047 34.408 15.2894 34.3419 15.2894C34.2757 15.2894 33.9278 15.2288 33.5634 15.1834L32.9006 15.0924L31.2441 13.6089C28.328 11.0206 26.0416 9.02259 25.1634 8.26559L24.3017 7.5543ZM23.6392 8.02344L25.9752 10.6877C27.2508 12.156 28.5431 13.5939 28.8251 13.9116C29.1064 14.2297 29.3385 14.4871 29.322 14.5022C29.2557 14.5476 25.9424 13.9571 24.1859 13.594C22.38 13.2155 21.6345 13.0339 20.5245 12.7161L19.6132 12.4435V12.2315C19.6297 11.2173 21.0381 9.70366 23.4238 8.15984L23.6392 8.02344ZM43.4875 11.6564C43.5538 11.6564 43.6364 11.7926 43.8353 12.2013C44.3985 13.3365 46.1551 16.3943 46.5854 16.9845C46.7183 17.1815 46.95 17.1966 44.6141 16.8484C38.9977 16.0157 37.1917 15.7435 37.1917 15.7132C37.1917 15.6981 37.3574 15.5921 37.5727 15.4861C39.3125 14.6083 41.0686 13.4881 42.626 12.2922C43.0071 12.0046 43.3551 11.7321 43.4212 11.6866C43.4377 11.6564 43.471 11.6413 43.4875 11.6564Z"
        fill="url(#paint1_linear_74_25)" />
    <path
        d="M16.8292 10.4302C16.8292 10.4302 16.465 10.9602 16.8128 11.7474C17.0284 12.2316 17.6579 12.8219 18.3702 13.4275C18.3702 13.4275 25.7428 19.9969 26.6375 20.9355C30.7131 25.2343 32.486 29.4727 32.6517 35.3156C32.7511 39.0696 31.9722 42.3694 30.0339 46.1991C26.5877 53.0714 19.3143 60.6551 8.09787 69.0713L9.73833 68.5717C10.7986 67.845 12.2401 67.0733 15.6198 65.3778C23.4232 61.4723 32.2043 57.8848 42.9736 54.1915C58.4807 48.8631 83.9792 42.6265 98.4924 40.5984L100 40.3864L99.7685 40.0533C98.4429 38.1763 97.5315 37.0108 96.4381 35.7696C93.2573 32.167 89.3969 29.2457 84.6749 26.8237C78.1802 23.5088 69.78 20.9204 59.1436 18.998C57.139 18.6345 52.7319 17.9383 49.1533 17.4388C41.565 16.3643 36.661 15.6225 31.2599 14.7748C29.3216 14.4719 26.4219 14.0179 24.5001 13.6396C23.5061 13.4426 21.6009 13.034 20.1097 12.5648C18.9169 12.1407 17.1937 11.7169 16.8292 10.4302ZM21.104 14.2146C21.1203 14.1997 21.3853 14.2902 21.7335 14.3963C22.363 14.5928 23.1748 14.82 24.136 15.0623C24.8632 15.2451 25.5922 15.4216 26.3229 15.5921C27.317 15.819 28.1453 16.031 28.1618 16.031C28.278 16.137 29.9513 21.0259 30.5147 22.9029C30.7297 23.6146 30.8958 24.2199 30.8792 24.2199C30.8621 24.2353 30.6802 23.9778 30.4649 23.6297C28.5263 20.5114 25.4613 17.3478 21.9157 14.8047C21.452 14.5022 21.104 14.2297 21.104 14.2146ZM29.2554 16.2733C29.3382 16.2733 29.7028 16.3187 30.1498 16.4094C32.9664 16.9846 38.0198 17.8626 41.2504 18.3622C41.7972 18.4378 42.2281 18.5288 42.2281 18.5589C42.2281 18.5893 42.0291 18.695 41.7805 18.8163C41.234 19.0735 39.0302 20.2692 38.3015 20.7234C36.4623 21.8436 34.8056 23.0545 33.6127 24.1443C33.1322 24.5834 32.7179 24.9466 32.7179 24.9466C32.7179 24.9466 32.6187 24.6894 32.5356 24.3713C31.9395 22.2673 30.6967 19.149 29.57 16.9542C29.3878 16.6062 29.2385 16.2883 29.2385 16.2581C29.2385 16.2883 29.2385 16.2733 29.2554 16.2733ZM43.6031 18.7709C43.7025 18.801 43.8682 19.3157 44.1995 20.4509C44.8126 22.6459 45.0943 25.0981 44.9949 27.3838C44.9615 28.0195 44.9286 28.6098 44.8953 28.6857L44.8456 28.8368L43.9842 28.5796C42.2114 28.065 39.3287 27.2928 36.8602 26.6572C35.4516 26.309 34.3088 25.9911 34.3088 25.9609C34.3088 25.87 36.3632 23.9931 37.2413 23.2817C38.9142 21.9343 43.4539 18.7253 43.6031 18.7709ZM44.7463 18.922C44.7961 18.8769 51.6055 19.9514 54.7037 20.4964C57.0068 20.905 60.3534 21.5408 60.5521 21.6166C60.6515 21.6468 60.3035 21.8284 59.1934 22.2825C54.8196 24.0839 51.5721 25.7034 48.3417 27.6714C47.4967 28.186 46.7842 28.6098 46.7677 28.6098C46.7512 28.6098 46.7346 28.1709 46.7346 27.6411C46.7346 24.7651 46.105 21.8588 44.945 19.4066C44.8291 19.1644 44.7297 18.9374 44.7463 18.922ZM62.358 22.101C62.4078 22.1464 62.1923 23.3726 61.9934 24.099C61.397 26.3545 59.79 29.7 57.8186 32.8483C57.4704 33.4083 57.1557 33.8625 57.1224 33.8776C57.0896 33.8926 56.6422 33.6655 56.1285 33.3931C54.2066 32.3638 52.0198 31.395 49.6338 30.4867C48.9714 30.2295 48.3913 30.0174 48.3747 29.9874C48.2585 29.8965 53.5936 26.6723 56.4101 25.1283C58.6468 23.8872 62.2916 22.0403 62.358 22.101ZM63.617 22.2825C63.7662 22.2825 66.7816 23.0395 68.3554 23.4633C72.249 24.523 76.7222 26.0214 79.6382 27.2324L80.8474 27.7321L80.0028 27.9136C72.8787 29.412 66.7816 31.1379 60.8999 33.3175C60.4194 33.4992 59.9886 33.6506 59.9558 33.6506C59.9225 33.6506 60.0882 33.3025 60.3036 32.8785C62.0764 29.4425 63.2196 25.855 63.501 22.7971C63.5178 22.5095 63.5672 22.2825 63.617 22.2825ZM33.5961 28.5796C33.6458 28.5341 35.9488 29.0338 37.1914 29.3514C39.08 29.8359 43.0894 31.0619 43.0894 31.1528C43.0894 31.1679 42.6422 31.5161 42.1122 31.9401C39.9418 33.59 37.8541 35.3305 35.3522 37.5406C34.6066 38.1917 33.9772 38.7214 33.9441 38.7214C33.9109 38.7214 33.8946 38.6304 33.9109 38.5094C34.2918 35.9663 34.2093 32.6968 33.6791 29.3818C33.6292 28.9578 33.5796 28.5947 33.5961 28.5796ZM81.9911 28.6251C82.0239 28.6552 80.9306 30.2295 80.2348 31.1225C79.2409 32.4242 77.7824 34.1501 74.4855 37.9343C72.7461 39.9322 70.7909 42.1878 70.145 42.9446C69.4819 43.7014 68.9355 44.337 68.9186 44.337C68.9021 44.337 68.6871 44.0647 68.455 43.7318C66.5992 41.1887 64.3791 38.9635 61.7447 36.9655C61.2477 36.5869 60.7012 36.1782 60.5189 36.0571C60.3367 35.9361 60.1874 35.815 60.1874 35.7999C60.1874 35.7546 63.0038 34.6494 65.1413 33.8624C68.8858 32.4697 73.9881 30.8047 77.8157 29.7299C79.8205 29.1548 81.9578 28.5947 81.9911 28.6251ZM83.2667 28.9277C83.3328 28.9127 83.7306 29.0943 84.2111 29.3514C88.2372 31.4554 92.1801 34.1651 95.2953 36.9503C96.1734 37.7376 98.3438 39.7962 98.3105 39.8113C98.3105 39.8113 97.5477 39.8718 96.6534 39.9322C89.6785 40.4168 80.7485 41.7638 72.1662 43.6558C71.5864 43.7768 71.0729 43.8828 71.0396 43.8828C71.0068 43.8828 71.6527 43.2926 72.4647 42.5812C77.5013 38.1461 79.8044 35.3458 82.5212 30.3504C82.9021 29.6089 83.2336 28.9732 83.2667 28.9277C83.2502 28.9277 83.2502 28.9277 83.2667 28.9277ZM46.3699 32.3791C46.602 32.4243 48.7558 33.348 50.3794 34.0895C51.8705 34.7704 54.1073 35.8605 54.2233 35.9512C54.2397 35.9663 53.4443 36.3447 52.4672 36.7838C49.3522 38.2066 46.6848 39.5537 43.9013 41.0977C43.1061 41.5368 42.4434 41.9002 42.4269 41.9002C42.3605 41.9002 42.3771 41.8394 42.8245 41.0977C44.3156 38.6155 45.5084 35.6486 46.1879 32.7573C46.2539 32.5303 46.3203 32.3791 46.3699 32.3791ZM44.2159 32.7422C44.2657 32.7877 43.7025 34.6494 43.3547 35.6637C42.6752 37.5861 41.5321 39.9928 40.4222 41.8093C40.1568 42.2329 39.7593 42.8536 39.5439 43.2017L39.1298 43.8072L38.202 42.99C37.1252 42.0363 36.2469 41.446 35.1205 40.916C34.6729 40.7043 34.3251 40.5225 34.3251 40.4924C34.3251 40.3713 37.1582 38.0251 39.3286 36.3297C40.8859 35.1036 44.1664 32.6969 44.2159 32.7422ZM57.3879 37.6921L58.1997 38.1763C60.0549 39.2815 62.2418 40.7497 63.9155 42.0363C64.8596 42.7476 66.682 44.2464 67.0468 44.6096L67.2453 44.8066L65.9036 45.1546C58.3154 47.0768 52.4504 48.7874 45.6078 51.0883C44.8456 51.3455 44.1995 51.5575 44.1497 51.5575C44.0506 51.5575 43.9675 51.6331 45.6742 50.195C50.0482 46.517 53.9249 42.46 56.8078 38.5093L57.3879 37.6921ZM53.925 38.4792C53.958 38.5094 51.6883 41.4307 50.3296 43.0807C48.7059 45.0486 45.8231 48.3484 43.835 50.4977C43.0068 51.3909 42.2945 52.1326 42.2612 52.1478C42.2114 52.1629 42.1948 51.9359 42.1948 51.5877C42.1948 49.7559 41.6814 47.8033 40.7866 46.1384C40.4054 45.4421 40.3392 45.2755 40.4223 45.1999C40.737 44.9425 45.5582 42.4298 48.6066 40.9313C50.661 39.9323 53.8749 38.4489 53.925 38.4792ZM32.9829 43.1717C33.0328 43.1717 33.4139 43.3532 33.8447 43.5652C34.905 44.095 35.8494 44.6853 36.6943 45.3212C36.7273 45.3513 36.2968 45.6693 35.7334 46.0475C34.1594 47.0768 31.7737 48.7269 30.3822 49.7411C28.9239 50.8007 28.8745 50.831 29.0399 50.604C30.1336 49.0751 30.6801 48.2123 31.2602 47.1073C31.7737 46.1236 32.2872 44.9579 32.6517 43.9437C32.7842 43.5047 32.95 43.1717 32.9829 43.1717ZM38.5666 47.1677C38.6492 47.1528 38.7489 47.2888 39.1959 47.8944C40.1404 49.1808 40.8694 50.9067 41.0519 52.2993L41.0847 52.6021L38.8152 53.4044C34.7557 54.8423 31.0117 56.2653 28.4764 57.3247C27.7643 57.6275 26.5216 58.1724 25.7099 58.5359C24.898 58.9141 24.2353 59.2017 24.2353 59.1867C24.2353 59.1716 24.7488 58.8234 25.3783 58.3994C30.3325 55.1149 34.6234 51.5121 37.8375 47.9096C38.1855 47.531 38.5004 47.1829 38.5333 47.1678L38.5666 47.1677ZM35.9986 47.743C36.0649 47.8036 34.1762 49.7561 32.8839 50.9519C29.6863 53.9341 26.5217 56.2653 22.595 58.5359C22.0981 58.8234 21.6508 59.0806 21.601 59.1111C21.485 59.1716 21.634 59.0201 23.3571 57.3096C24.4507 56.2348 25.279 55.3267 26.2234 54.2067C26.8529 53.4651 26.969 53.3591 27.8803 52.7685C30.3159 51.1639 35.9323 47.6824 35.9986 47.743Z"
        fill="url(#paint2_radial_74_25)" />
    <defs>
        <linearGradient id="paint0_linear_74_25" x1="25.8952" y1="81.4469" x2="38.8797" y2="74.4162"
            gradientUnits="userSpaceOnUse">
            <stop stop-color="#909CA9" />
            <stop offset="1" stop-color="#EDEDEE" />
        </linearGradient>
        <linearGradient id="paint1_linear_74_25" x1="0.167835" y1="49.8457" x2="18.5943"
            y2="49.8457" gradientUnits="userSpaceOnUse">
            <stop stop-color="#939FAB" />
            <stop offset="1" stop-color="#DCDEE1" />
        </linearGradient>
        <radialGradient id="paint2_radial_74_25" cx="0" cy="0" r="1" gradientUnits="userSpaceOnUse"
            gradientTransform="translate(48.8531 36.1624) rotate(-172.185) scale(8.20736 15.0556)">
            <stop stop-color="#EE352C" />
            <stop offset="1" stop-color="#A91D22" />
        </radialGradient>
    </defs>
</svg>
    