<svg width="350" height="200" viewBox="0 0 350 200" fill="none" xmlns="http://www.w3.org/2000/svg">
    <g clip-path="url(#clip0_74_34)">
    <path d="M69.9302 180.583H58.9392C58.5505 159.66 57.4804 139.99 55.7304 121.557H55.6328L38.8979 180.583H30.5304L13.8945 121.557H13.8001C12.5658 139.254 11.7883 158.929 11.4662 180.583H1.44629C2.09209 154.251 3.71513 129.565 6.30915 106.522H19.9313L35.7866 160.942H35.8841L51.837 106.522H64.8706C67.7264 133.512 69.4129 158.201 69.9302 180.583ZM117.597 125.941C113.123 153.329 107.218 173.23 99.8908 185.652C94.1808 195.214 87.9257 200 81.1147 200C79.2996 200 77.0587 199.382 74.4027 198.156V191.552C75.7005 191.762 77.2244 191.882 78.9744 191.882C82.1554 191.882 84.7122 190.895 86.662 188.917C88.9943 186.507 90.1605 183.798 90.1605 180.801C90.1605 178.746 89.2514 174.545 87.4379 168.183L75.3768 125.938H86.1742L94.8313 157.533C96.7764 164.707 97.5879 169.716 97.2627 172.568C101.997 158.309 105.305 142.761 107.188 125.936H117.597V125.941Z" fill="#5D87A1"/>
    <path d="M286.402 188.917H252.41V107.73H263.845V178.923H286.402V188.917ZM243.511 190.878L230.368 183.513C231.532 182.426 232.647 181.249 233.651 179.886C239.238 172.434 242.025 161.414 242.025 146.817C242.025 119.958 232.742 106.522 214.172 106.522C205.065 106.522 197.962 109.93 192.881 116.749C187.298 124.207 184.511 135.188 184.511 149.706C184.511 163.977 186.982 174.446 191.923 181.086C196.444 187.102 203.258 190.114 212.372 190.114C215.771 190.114 218.89 189.641 221.732 188.688L238.845 200L243.511 190.878ZM200.932 172.671C198.038 167.382 196.59 158.891 196.59 147.182C196.59 126.74 202.058 116.508 213.009 116.508C218.731 116.508 222.926 118.955 225.609 123.839C228.498 129.135 229.954 137.551 229.954 149.096C229.954 169.706 224.48 180.012 213.538 180.012C207.811 180.015 203.617 177.576 200.932 172.671ZM179.528 166.413C179.528 173.298 177.304 178.946 172.859 183.371C168.41 187.777 162.444 189.985 154.967 189.985C147.975 189.985 141.195 187.449 134.632 182.402L137.706 175.43C143.352 178.642 148.466 180.238 153.056 180.238C157.363 180.238 160.73 179.154 163.172 177.003C165.613 174.845 167.067 171.817 167.067 167.989C167.067 163.165 164.105 159.043 158.67 155.59C153.659 152.465 143.637 145.932 143.637 145.932C138.205 141.437 135.485 136.611 135.485 128.66C135.485 122.08 137.514 116.768 141.571 112.727C145.635 108.67 150.877 106.648 157.304 106.648C163.94 106.648 169.974 108.667 175.408 112.663L172.652 119.638C168.003 117.395 163.415 116.274 158.89 116.274C155.225 116.274 152.395 117.274 150.427 119.283C148.443 121.284 147.219 123.844 147.219 126.985C147.219 131.785 150.244 135.96 155.825 139.481C160.904 142.611 171.176 149.257 171.176 149.257C176.746 153.744 179.528 158.526 179.528 166.413Z" fill="#F8981D"/>
    <path d="M339.749 100.883C332.752 100.699 327.335 101.427 322.788 103.415C321.475 103.957 319.387 103.957 319.205 105.673C319.914 106.398 319.996 107.569 320.611 108.571C321.659 110.378 323.488 112.809 325.156 114.077C326.988 115.528 328.828 116.965 330.756 118.23C334.157 120.405 338.01 121.67 341.324 123.838C343.256 125.098 345.174 126.729 347.107 128.086C348.056 128.809 348.665 129.982 349.898 130.435V130.159C349.281 129.346 349.105 128.17 348.499 127.266L345.873 124.648C343.336 121.126 340.185 118.051 336.784 115.526C333.985 113.532 327.863 110.823 326.728 107.489L326.552 107.305C328.475 107.119 330.756 106.398 332.584 105.844C335.559 105.034 338.27 105.218 341.321 104.407C342.726 104.045 344.118 103.59 345.527 103.142V102.327C343.945 100.699 342.817 98.5361 341.154 96.9976C336.703 93.0228 331.797 89.1354 326.728 85.8817C324.015 84.0698 320.523 82.9037 317.633 81.3626C316.591 80.8185 314.836 80.5498 314.223 79.6452C312.655 77.6565 311.773 75.0391 310.636 72.6852C308.108 67.7187 305.654 62.208 303.472 56.9561C301.895 53.4339 300.935 49.9165 299.012 46.6578C290.003 31.2963 280.218 21.9924 265.181 12.8602C261.949 10.9587 258.103 10.1483 253.996 9.15176L247.438 8.79372C246.038 8.15981 244.636 6.43981 243.414 5.62698C238.426 2.37568 225.581 -4.67126 221.911 4.63263C219.548 10.5137 225.408 16.2955 227.419 19.2781C228.906 21.3489 230.831 23.7052 231.87 26.0565C232.487 27.5926 232.66 29.2233 233.275 30.8463C234.675 34.8235 235.982 39.248 237.822 42.9589C238.782 44.8507 239.827 46.8394 241.054 48.552C241.756 49.5535 242.977 49.9963 243.244 51.6291C242.025 53.4289 241.929 56.1457 241.229 58.4052C238.084 68.6163 239.313 81.2659 243.77 88.77C245.166 91.0296 248.492 96.0033 252.945 94.097C256.885 92.4713 256.013 87.3211 257.145 82.8046C257.405 81.7135 257.233 80.9974 257.758 80.2813V80.458C258.977 82.9859 260.208 85.422 261.339 87.9572C264.05 92.3817 268.772 96.9928 272.706 100.058C274.801 101.693 276.46 104.49 279.083 105.489V105.218H278.91C278.379 104.407 277.603 104.045 276.904 103.415C275.328 101.787 273.582 99.7989 272.357 97.9941C268.693 92.9311 265.45 87.3259 262.571 81.5417C261.162 78.7354 259.948 75.668 258.813 72.8667C258.285 71.7854 258.285 70.1548 257.406 69.6107C256.092 71.5967 254.174 73.3167 253.216 75.7502C251.551 79.6426 251.379 84.4302 250.761 89.4087L250.417 89.5828C247.631 88.8596 246.663 85.8817 245.606 83.3537C242.987 76.9333 242.547 66.6278 244.819 59.2204C245.427 57.3263 248.06 51.3607 247.009 49.5559C246.482 47.8263 244.732 46.8417 243.773 45.4798C242.644 43.767 241.409 41.5994 240.623 39.698C238.527 34.6396 237.47 29.0346 235.212 23.9785C234.158 21.6222 232.326 19.1837 230.841 17.0139C229.176 14.5755 227.342 12.8578 226.026 9.96698C225.59 8.97263 224.979 7.34698 225.679 6.26568C225.849 5.53981 226.205 5.26894 226.902 5.08742C228.036 4.09809 231.273 5.35611 232.406 5.90024C235.648 7.25502 238.358 8.52024 241.063 10.4168C242.287 11.3239 243.6 13.0415 245.17 13.4939H247.009C249.801 14.1231 252.949 13.6683 255.576 14.4859C260.208 16.0244 264.403 18.2815 268.167 20.7176C279.617 28.2241 289.06 38.89 295.434 51.6291C296.479 53.7048 296.924 55.6063 297.879 57.7713C299.721 62.2033 301.997 66.7222 303.826 71.0596C305.663 75.3052 307.413 79.6402 310.037 83.1674C311.345 85.0639 316.601 86.0583 318.957 87.0526C320.701 87.8628 323.415 88.5839 324.987 89.578C327.962 91.4722 330.925 93.647 333.72 95.73C335.114 96.8137 339.489 99.0733 339.749 100.883ZM250.575 22.348C249.369 22.335 248.166 22.488 246.998 22.8028V22.9841H247.167C247.871 24.4285 249.095 25.43 249.967 26.6904C250.671 28.1393 251.283 29.5763 251.972 31.023L252.141 30.8439C253.375 29.9417 253.987 28.495 253.987 26.325C253.456 25.6863 253.375 25.0622 252.932 24.4285C252.418 23.5237 251.283 23.0737 250.575 22.348Z" fill="#5D87A1"/>
    <path d="M322.907 200H325.119V184.787H321.8L319.093 195.168L316.152 184.787H312.955V200H315.045V188.425H315.162L318.244 200H319.836L322.907 188.425V200ZM305.082 200H307.424V187.365H310.488V184.783H301.889V187.365H305.077L305.082 200Z" fill="#F8981D"/>
    </g>
    <defs>
    <clipPath id="clip0_74_34">
    <rect width="350" height="200" fill="white"/>
    </clipPath>
    </defs>
    </svg>
    