<svg width="17" height="17" viewBox="0 0 17 17" fill="none" xmlns="http://www.w3.org/2000/svg">
    <path
        d="M5.5 16H11.5C13.6213 16 14.6819 16 15.341 15.341C16 14.682 16 13.6213 16 11.5V10.75C16 8.62877 16 7.56813 15.341 6.90911C14.7647 6.33282 13.8812 6.26049 12.25 6.2514M4.75 6.2514C3.11873 6.26049 2.23529 6.33282 1.65901 6.9091C1 7.56813 1 8.62877 1 10.75V11.5C1 13.6213 1 14.682 1.65901 15.341C1.88386 15.5658 2.15546 15.7139 2.5 15.8116"
        stroke="white" stroke-width="1.5" stroke-linecap="round" />
    <path d="M8.50049 1V10.7499M8.50049 10.7499L6.25049 8.12493M8.50049 10.7499L10.7505 8.12493"
        stroke="white" stroke-width="1.5" stroke-linecap="round" stroke-linejoin="round" />
</svg>
