<svg xmlns="http://www.w3.org/2000/svg" width="246" height="100" viewBox="0 0 246 100" fill="none">
    <path
        d="M214.378 40.3232C213.851 40.3232 213.338 40.4419 212.885 40.7218L198.535 49.7608C197.607 50.3441 197.042 51.4466 197.042 52.6189V70.6646C197.042 71.8364 197.607 72.9371 198.535 73.5223L202.283 75.8779C204.103 76.8571 204.775 76.8414 205.604 76.8414C208.299 76.8414 209.838 75.0571 209.838 71.956V54.1528C209.838 53.9011 209.638 53.721 209.412 53.721H207.614C207.384 53.721 207.188 53.9057 207.188 54.1528V71.9653C207.188 73.3398 205.875 74.7227 203.745 73.5606L199.85 71.0683C199.712 70.9866 199.606 70.8374 199.606 70.6697V52.624C199.606 52.4531 199.711 52.2785 199.85 52.1921L214.169 43.1854C214.303 43.1014 214.463 43.1014 214.595 43.1854L228.915 52.1921C229.051 52.2813 229.159 52.4475 229.159 52.624V70.6697C229.159 70.842 229.08 71.0184 228.945 71.1016L214.596 80.1083C214.469 80.1882 214.299 80.1882 214.169 80.1083L210.483 77.7157C210.373 77.6455 210.223 77.651 210.118 77.7157C209.1 78.3448 208.909 78.4178 207.955 78.779C207.72 78.8681 207.362 79.0071 208.077 79.4441L212.89 82.5387C213.348 82.8278 213.859 82.9705 214.383 82.9705C214.915 82.9705 215.418 82.832 215.876 82.5387L230.226 73.532C231.154 72.9426 231.719 71.8461 231.719 70.6743V52.6286C231.719 51.4563 231.154 50.3561 230.226 49.7705L215.876 40.7315C215.427 40.4516 214.911 40.3329 214.383 40.3329L214.378 40.3232ZM218.217 53.218C214.13 53.218 211.697 55.1149 211.697 58.2691C211.697 61.687 214.112 62.6311 218.034 63.0542C222.726 63.5553 223.092 64.3068 223.092 65.3142C223.092 67.0615 221.815 67.8065 218.796 67.8065C215.004 67.8065 214.17 66.7737 213.891 64.7119C213.858 64.4911 213.702 64.3133 213.495 64.3133H211.632C211.519 64.316 211.412 64.3659 211.333 64.4525C211.254 64.5392 211.208 64.6559 211.205 64.7784C211.205 67.4125 212.519 70.5274 218.792 70.5274C223.332 70.5274 225.951 68.5875 225.951 65.177C225.951 61.8053 223.836 60.894 219.431 60.258C214.985 59.6113 214.557 59.3019 214.557 58.1643C214.557 57.2257 214.917 55.9703 218.213 55.9703C221.157 55.9703 222.245 56.6631 222.692 58.8284C222.73 59.0317 222.895 59.1979 223.087 59.1979H224.951C225.065 59.1979 225.176 59.1213 225.255 59.0317C225.333 58.9361 225.388 58.8284 225.377 58.6991C225.089 54.9699 222.81 53.2157 218.218 53.2157L218.217 53.218Z"
        fill="#83CD29" />
    <path
        d="M130.016 16.667C129.856 16.6673 129.698 16.7131 129.559 16.8C129.421 16.8883 129.306 17.0145 129.226 17.166C129.145 17.3175 129.103 17.4892 129.102 17.6642V43.087C129.102 43.3365 128.995 43.56 128.797 43.6852C128.7 43.7469 128.59 43.7795 128.477 43.7795C128.365 43.7795 128.255 43.7469 128.157 43.6852L124.349 41.2926C124.071 41.1173 123.756 41.025 123.435 41.025C123.114 41.025 122.799 41.1173 122.521 41.2926L107.319 50.8633C106.75 51.2208 106.404 51.909 106.404 52.6244V71.7662C106.404 72.1165 106.488 72.4607 106.648 72.7641C106.809 73.0675 107.04 73.3193 107.318 73.4941L122.521 83.0652C122.799 83.241 123.114 83.3336 123.435 83.3336C123.756 83.3336 124.071 83.241 124.349 83.0652L139.552 73.4941C139.83 73.3193 140.061 73.0675 140.222 72.7641C140.382 72.4607 140.466 72.1165 140.466 71.7662V24.0446C140.466 23.3185 140.103 22.6372 139.522 22.2834L130.473 16.7663C130.331 16.6799 130.173 16.6651 130.016 16.667ZM32.2184 40.561C31.9283 40.574 31.656 40.6289 31.3956 40.7938L16.1933 50.3645C15.9148 50.539 15.6836 50.7907 15.5231 51.0942C15.3626 51.3977 15.2786 51.742 15.2795 52.0924L15.3104 77.7817C15.3104 78.1392 15.4798 78.4709 15.7677 78.6455C16.0502 78.8302 16.4004 78.8302 16.6815 78.6455L25.6995 72.9957C26.2712 72.6262 26.6438 71.9814 26.6438 71.2683V59.2709C26.6438 58.555 26.9889 57.8991 27.5584 57.5435L31.3973 55.1177C31.6747 54.9417 31.9902 54.8499 32.3111 54.8516C32.6322 54.8496 32.9479 54.9414 33.2253 55.1177L37.0625 57.5421C37.6312 57.8977 37.9763 58.5545 37.9763 59.2695V71.2665C37.9763 71.9805 38.3574 72.629 38.9206 72.9939L47.9385 78.6436C48.2223 78.8284 48.5716 78.8284 48.8523 78.6436C49.1318 78.4681 49.3096 78.1369 49.3096 77.7799L49.3401 52.0914C49.3419 51.7409 49.2583 51.3962 49.0977 51.0925C48.9371 50.7889 48.7054 50.5373 48.4263 50.3635L33.224 40.7933C32.967 40.6289 32.6935 40.5735 32.4013 40.5606H32.2192L32.2184 40.561ZM168.83 40.7938C168.509 40.7928 168.194 40.8846 167.916 41.0599L152.713 50.631C152.146 50.9889 151.798 51.6434 151.798 52.3584V71.5002C151.798 72.2198 152.17 72.8719 152.743 73.2276L167.824 82.6038C168.38 82.9502 169.06 82.9765 169.621 82.6361L178.761 77.0862C179.051 76.9106 179.247 76.5827 179.248 76.2224C179.249 75.8622 179.077 75.5379 178.791 75.3587L163.496 65.7876C163.21 65.6093 163.009 65.2486 163.009 64.8902V58.9046C163.009 58.5472 163.212 58.2192 163.496 58.0409L168.249 55.0498C168.532 54.8715 168.879 54.8715 169.163 55.0498L173.918 58.0409C174.057 58.1282 174.173 58.254 174.253 58.4057C174.333 58.5574 174.375 58.7295 174.375 58.9046V63.6237C174.375 63.7988 174.417 63.971 174.497 64.1226C174.577 64.2743 174.693 64.4002 174.832 64.4874C175.117 64.6666 175.462 64.6675 175.746 64.4874L184.856 58.706C185.421 58.3476 185.77 57.6913 185.77 56.9786V52.3598C185.77 52.0096 185.686 51.6656 185.525 51.3623C185.365 51.059 185.134 50.8071 184.856 50.6319L169.745 41.0608C169.467 40.8854 169.151 40.7935 168.83 40.7947L168.83 40.7938ZM123.374 55.0844C123.459 55.084 123.543 55.1067 123.618 55.1505L128.827 58.4405C128.969 58.5296 129.071 58.6945 129.071 58.8723V65.4523C129.071 65.631 128.97 65.7955 128.827 65.8841L123.618 69.1741C123.476 69.2619 123.303 69.2619 123.16 69.1741L117.951 65.8841C117.809 65.795 117.707 65.6301 117.707 65.4523V58.8714C117.707 58.6931 117.809 58.5296 117.951 58.4395L123.16 55.15C123.232 55.1052 123.294 55.0844 123.374 55.0844Z"
        fill="white" />
    <path
        d="M77.888 40.6936C77.567 40.693 77.2515 40.7847 76.9734 40.9596L61.7706 50.4975C61.2024 50.855 60.8568 51.5436 60.8568 52.2586V71.4004C60.856 71.7506 60.9401 72.0949 61.1005 72.3983C61.261 72.7017 61.4922 72.9533 61.7706 73.1278L76.9734 82.6989C77.251 82.8747 77.5663 82.9673 77.8874 82.9673C78.2084 82.9673 78.5237 82.8747 78.8014 82.6989L94.0041 73.1278C94.2824 72.953 94.5134 72.7012 94.674 72.3978C94.8345 72.0944 94.9188 71.7502 94.9183 71.3999V52.2582C94.9183 51.5422 94.5728 50.854 94.0037 50.497L78.8009 40.9591C78.5231 40.7834 78.2074 40.6916 77.8863 40.6931L77.888 40.6936ZM168.8 57.7753C168.74 57.7753 168.673 57.7753 168.617 57.8077L165.693 59.669C165.638 59.7021 165.593 59.7501 165.561 59.8084C165.529 59.8667 165.511 59.9332 165.51 60.0011V63.6569C165.51 63.7946 165.583 63.9202 165.693 63.9895L168.617 65.8172C168.668 65.8511 168.726 65.8691 168.785 65.8691C168.844 65.8691 168.902 65.8511 168.952 65.8172L171.877 63.9895C171.985 63.9216 172.06 63.7946 172.06 63.6569V60.0011C172.06 59.8635 171.986 59.7379 171.877 59.6686L168.952 57.8072C168.898 57.7721 168.861 57.7749 168.8 57.7749L168.8 57.7753Z"
        fill="#83CD29" />
</svg>