<svg width="327" height="100" viewBox="0 0 327 100" fill="none" xmlns="http://www.w3.org/2000/svg">
    <path
        d="M70.1059 46.6833L45.7671 53.2226L24.5926 60.9121L18.6687 62.1989C17.16 63.3797 15.5781 64.5756 13.8672 65.7865C11.9907 67.1185 10.2431 68.3296 8.8999 69.2074C7.40988 70.1763 5.20224 71.9927 4.08014 73.1429C2.40594 74.8685 1.08143 76.7 0.511091 78.1079C-0.500809 80.651 -0.00385559 83.2242 1.94614 85.6009C4.44806 88.6282 9.43368 91.716 15.2468 93.8201C18.2089 94.895 23.1943 96.2724 26.9471 97.0443C33.1835 98.3461 45.2519 99.7539 51.8929 99.966C53.2357 100.011 55.0387 100.011 55.1121 99.966C55.2595 99.89 56.2897 98.2705 57.4857 96.2574C61.5698 89.4002 64.5132 82.9669 66.1136 77.4723C67.0702 74.1423 67.8243 69.7071 68.3209 64.4547C68.4499 62.9863 68.5049 58.0668 68.3945 56.4016C68.2288 53.677 67.9344 51.4671 67.4749 49.3025C67.4013 48.9845 67.3826 48.6969 67.4196 48.6818C67.493 48.6364 67.7137 48.5759 70.7124 47.8643L70.1059 46.6833ZM64.5502 49.3627C64.7709 49.3627 65.3594 54.0097 65.5065 56.9465C65.5435 57.567 65.5248 57.9757 65.4882 57.9757C65.3412 57.9757 62.3791 56.5379 60.2638 55.448C58.424 54.4943 54.9288 52.587 54.377 52.2237C54.1926 52.1178 54.2109 52.1027 55.7197 51.6788C58.2766 50.9672 64.3478 49.3627 64.5502 49.3627ZM52.1507 52.7232C52.3164 52.7232 52.7392 52.9198 53.7511 53.4346C57.5408 55.3872 62.692 57.7487 64.8996 58.5359C65.5801 58.7781 65.6535 58.6871 64.0901 59.5653C60.7419 61.4422 56.5656 63.2888 51.4513 65.1507C50.55 65.4837 49.7958 65.741 49.7775 65.741C49.7409 65.741 49.8509 65.3628 49.9979 64.9086C51.2305 61.1392 51.9297 57.3247 51.9667 54.267C51.9851 52.7532 51.9851 52.7532 52.1507 52.7081C52.1137 52.7232 52.1321 52.7232 52.1507 52.7232ZM49.5937 53.5254C49.7037 53.6161 49.6303 57.0069 49.4831 57.9302C49.1519 60.1403 48.6368 62.1988 47.7909 64.515C47.5885 65.0747 47.4042 65.5443 47.3678 65.5744C47.2938 65.65 44.7735 63.6217 43.9457 62.8346C42.5106 61.4722 41.3887 60.1099 40.5608 58.7779C40.1377 58.0967 39.4755 56.7648 39.5306 56.7193C39.8249 56.5528 49.52 53.4649 49.5937 53.5254ZM37.562 57.4155C37.5803 57.4155 37.5987 57.4156 37.6173 57.4306C37.654 57.4609 37.783 57.7032 37.8934 57.9756C38.4819 59.2925 39.8062 61.23 40.9471 62.4713C42.1981 63.8337 43.8356 65.2868 45.1966 66.2404C45.6383 66.5431 46.0428 66.8306 46.0978 66.8761C46.2085 66.967 46.2452 66.9517 43.2464 67.8904C39.7698 68.9802 35.9799 70.07 31.6381 71.2204C30.601 71.4955 29.5648 71.773 28.5296 72.053C28.3637 72.0985 28.419 72.0227 28.8973 71.4022C31.0496 68.632 34.3241 63.1979 36.1639 59.3531C36.4767 58.687 36.7894 58.0211 36.8447 57.8697C36.9184 57.6576 37.0102 57.582 37.2492 57.476C37.378 57.446 37.507 57.4155 37.562 57.4155ZM33.883 58.6719C33.9381 58.7024 32.9998 60.3218 32.0799 61.8053C30.2954 64.6661 28.3454 67.4818 25.7331 70.9027C25.2916 71.493 24.8686 72.038 24.8133 72.0986C24.7214 72.2046 24.6845 72.1742 24.3902 71.705C23.7647 70.6908 23.2494 69.3889 22.9735 68.193C22.6975 67.0123 22.7528 64.9538 23.0657 63.6823C23.3045 62.7439 23.2864 62.7591 23.8382 62.5319C26.193 61.5481 33.8094 58.6114 33.883 58.6719ZM65.6171 59.7317V60.3674C65.6171 63.7429 65.1756 68.3748 64.5315 71.7505C64.4211 72.3408 64.3288 72.825 64.3108 72.8403C64.3108 72.8403 63.7773 72.7194 63.1518 72.5678C60.3925 71.8563 57.3937 70.8118 54.6893 69.5859C52.9046 68.7836 50.3109 67.4665 50.3846 67.406C50.4026 67.3909 51.1755 67.0579 52.0768 66.6643C55.683 65.1204 59.1412 63.4553 62.1399 61.8054C63.2622 61.1847 64.9544 60.1859 65.3227 59.9133L65.6171 59.7317ZM19.9932 64.2119C20.0668 64.2119 20.0484 64.333 19.938 64.878C19.8644 65.2717 19.7725 65.9982 19.7359 66.4975C19.5884 68.7076 20.0302 70.3425 21.3547 72.5827C21.7226 73.2034 22.0172 73.718 21.9985 73.733C21.8697 73.824 9.69132 76.7607 5.86454 77.6234C4.72403 77.8806 3.7308 78.1078 3.65682 78.1227C3.5283 78.1531 3.5098 78.1381 3.56494 77.8805C3.98801 75.6555 6.04855 72.7492 8.91831 70.2969C10.8317 68.6622 12.3587 67.7086 14.971 66.4823C16.8474 65.6046 19.7357 64.2878 19.9564 64.2271C19.9566 64.2119 19.9749 64.2119 19.9932 64.2119ZM48.6921 68.4352C48.7105 68.4201 49.1519 68.617 49.6854 68.8742C53.6224 70.7513 59.1045 72.4921 63.777 73.3851L64.2004 73.4609L63.6116 73.733C61.1649 74.8533 53.1256 77.6081 44.9024 80.1362C43.7064 80.4993 42.5292 80.8627 42.3081 80.9383C42.0874 81.0139 41.885 81.0594 41.885 81.0444C41.885 81.029 42.2163 80.4993 42.6391 79.8485C44.9387 76.3065 47.2569 71.9925 48.4342 68.9953C48.5818 68.7077 48.6735 68.4505 48.6921 68.4352ZM45.7671 69.2224C45.7857 69.2378 45.6384 69.5554 45.4543 69.9187C43.8539 73.1126 41.7564 76.5943 39.0706 80.4996C38.3901 81.4987 37.8196 82.301 37.801 82.301C37.7829 82.301 37.2308 82.0284 36.5686 81.6954C32.6683 79.7275 29.2098 77.3057 26.9472 74.9594L26.616 74.6264L28.2899 74.2479C34.2873 72.9009 39.383 71.4477 44.4423 69.6616C45.1599 69.4193 45.7487 69.2224 45.7671 69.2224ZM63.943 74.4447C63.9613 74.7929 63.0231 77.9111 62.2503 80.1663C61.6065 82.0585 61.0543 83.542 60.0428 86.1605C59.6013 87.3112 59.2152 88.2646 59.1965 88.2646C59.1782 88.2646 59.0679 88.2495 58.9575 88.2194C53.4937 87.4018 48.6002 86.2666 44.001 84.753C42.713 84.329 40.8735 83.6478 40.7631 83.5722C40.7265 83.5416 41.8303 83.1181 43.2284 82.6185C51.5989 79.6062 60.2821 76.1852 63.2622 74.7171C63.6116 74.5354 63.8877 74.4447 63.943 74.4447ZM21.9802 75.6255C22.017 75.6556 19.6806 78.4258 16.4058 82.1948C15.2653 83.5118 13.9408 85.0557 13.4442 85.6309C12.9474 86.2061 12.1932 87.1144 11.7701 87.6593L10.9971 88.6433L10.1692 88.0681C9.1941 87.4019 7.50184 85.9791 6.74758 85.192C5.16534 83.5725 4.09855 81.862 3.6754 80.303C3.47298 79.5763 3.47298 79.2128 3.65673 79.1677C3.93261 79.1071 8.84459 78.1534 13.444 77.2753C16.0012 76.7911 18.9628 76.2159 20.0299 76.004C21.097 75.7917 21.9619 75.6255 21.9802 75.6255ZM24.3349 76.3672L24.9233 76.9121C27.5728 79.3491 30.2771 81.1507 33.5516 82.7246C34.1405 82.9973 34.5819 83.2393 34.5449 83.2547C34.4164 83.3303 23.1758 86.6147 17.9696 88.0982C15.0447 88.9459 12.6345 89.627 12.6164 89.627C12.5981 89.627 12.4324 89.5363 12.2481 89.4303L11.9172 89.2334L12.4506 88.5978C14.1798 86.5391 16.351 84.2838 21.0788 79.5914L24.3349 76.3672ZM39.0156 85.0103C39.0337 84.9952 39.8432 85.2372 40.8365 85.5403C43.2284 86.2819 45.1229 86.7511 47.6619 87.2809C50.7894 87.9319 55.3149 88.5677 57.9826 88.7492C58.3873 88.7794 58.608 88.8098 58.5344 88.8553C58.4054 88.9158 55.7014 89.6576 53.7145 90.1722C50.55 90.9895 40.8919 93.3357 33.0182 95.1976C31.5648 95.5457 30.3138 95.8334 30.2402 95.8484C30.0565 95.8788 29.4492 95.7424 29.4492 95.6819C29.4492 95.6518 29.8906 95.1826 30.4242 94.6678C33.0732 92.0642 35.7041 89.158 37.8934 86.403C38.5003 85.6459 39.0156 85.0254 39.0156 85.0103ZM35.7775 85.0861C35.7958 85.1012 34.4898 86.8267 32.2089 89.7935C31.2336 91.0499 30.1482 92.4728 29.7618 92.9723C29.3938 93.4567 28.842 94.2137 28.5294 94.6374L27.9958 95.4095L27.7199 95.3489C27.0574 95.1975 22.4032 93.8502 21.1705 93.4416C19.6435 92.942 18.0615 92.3366 16.884 91.822C15.4124 91.171 13.5729 90.2022 13.7199 90.1721C13.7566 90.157 16.2771 89.5967 19.3123 88.9157C27.3702 87.1142 31.8405 86.0699 34.7658 85.3131C35.2994 85.1768 35.7592 85.0708 35.7775 85.0861ZM58.6814 89.5059H58.6997C58.7734 89.6574 55.7933 96.469 54.7075 98.6184C54.4687 99.1027 54.377 99.2241 54.2479 99.2086C53.9351 99.1938 49.6121 98.6942 46.981 98.3762C42.4005 97.8011 34.7106 96.6959 32.7791 96.3328L32.3376 96.2572L35.0783 95.7422C40.9655 94.6523 43.7985 94.0621 46.6683 93.3355C50.2925 92.4273 53.8801 91.292 57.504 89.8995C58.0743 89.6875 58.5527 89.521 58.6814 89.5059Z"
        fill="url(#paint0_linear_0_1)" />
    <path
        d="M45.0129 0.000775298C44.6082 -0.0443869 38.0771 1.89312 33.8644 3.30068C28.1797 5.20817 23.7648 7.02471 21.0419 8.59862C20.0303 9.18921 18.7607 10.2335 18.5586 10.6422C18.485 10.7936 18.4481 10.9752 18.4481 11.1568L20.9133 13.0792L26.7817 14.6232L40.7449 16.6819L56.713 18.9373L56.8787 17.8021C56.8237 17.8021 56.7867 17.787 56.7319 17.787L54.6342 17.5144L54.2114 16.8939C52.0405 13.7453 49.6489 9.83991 48.2508 7.20606C47.1656 5.16252 46.1352 2.80139 45.5648 1.10596C45.252 0.07665 45.215 0.0158526 45.0129 0.000775298ZM44.7182 0.772999H44.7371C44.7552 0.787937 44.8288 1.21206 44.9025 1.71128C45.215 3.83076 45.7857 5.87395 46.687 8.08403C47.3675 9.74917 47.3675 9.65843 46.5766 9.46151C44.7002 9.03781 36.293 7.84196 30.2037 7.14568C29.2286 7.03965 28.4007 6.93376 28.4007 6.91868C28.3272 6.85816 32.7974 4.9356 34.7659 4.17894C37.2862 3.22509 44.2033 0.848595 44.7182 0.772999ZM26.9839 7.5543L27.7017 7.75087C31.6015 8.8409 41.4067 10.3849 46.8156 10.7482C47.4225 10.7936 47.9379 10.8391 47.956 10.8391C47.9743 10.8542 47.4595 11.0813 46.797 11.3385C44.185 12.4132 41.315 13.7302 39.3281 14.7444C38.7396 15.047 38.2058 15.2894 38.1324 15.2894C38.0588 15.2894 37.6726 15.2288 37.2679 15.1834L36.532 15.0924L34.6926 13.6089C31.4547 11.0206 28.9159 9.02259 27.9408 8.26559L26.9839 7.5543ZM26.2483 8.02344L28.8422 10.6877C30.2586 12.156 31.6935 13.5939 32.0066 13.9116C32.319 14.2297 32.5767 14.4871 32.5584 14.5022C32.4848 14.5476 28.8057 13.9571 26.8554 13.594C24.8501 13.2155 24.0223 13.0339 22.7898 12.7161L21.7779 12.4435V12.2315C21.7962 11.2173 23.3601 9.70366 26.0091 8.15984L26.2483 8.02344ZM48.2874 11.6564C48.3611 11.6564 48.4528 11.7926 48.6736 12.2013C49.299 13.3365 51.2495 16.3943 51.7273 16.9845C51.8749 17.1815 52.1321 17.1966 49.5384 16.8484C43.3021 16.0157 41.2967 15.7435 41.2967 15.7132C41.2967 15.6981 41.4807 15.5921 41.7198 15.4861C43.6516 14.6083 45.6015 13.4881 47.3309 12.2922C47.754 12.0046 48.1404 11.7321 48.2138 11.6866C48.2321 11.6564 48.2691 11.6413 48.2874 11.6564Z"
        fill="url(#paint1_linear_0_1)" />
    <path
        d="M18.6869 10.4302C18.6869 10.4302 18.2825 10.9602 18.6687 11.7474C18.9081 12.2316 19.6071 12.8219 20.398 13.4275C20.398 13.4275 28.5844 19.9969 29.5779 20.9355C34.1033 25.2343 36.0719 29.4727 36.2559 35.3156C36.3663 39.0696 35.5014 42.3694 33.3492 46.1991C29.5226 53.0714 21.4463 60.6551 8.99187 69.0713L10.8134 68.5717C11.9907 67.845 13.5913 67.0733 17.3441 65.3778C26.0088 61.4723 35.7591 57.8848 47.7171 54.1915C64.9359 48.8631 93.2488 42.6265 109.364 40.5984L111.038 40.3864L110.781 40.0533C109.309 38.1763 108.297 37.0108 107.083 35.7696C103.551 32.167 99.2646 29.2457 94.0213 26.8237C86.8098 23.5088 77.4824 20.9204 65.672 18.998C63.4461 18.6345 58.5525 17.9383 54.5789 17.4388C46.1531 16.3643 40.7077 15.6225 34.7105 14.7748C32.5582 14.4719 29.3385 14.0179 27.2045 13.6396C26.1008 13.4426 23.9853 13.034 22.3296 12.5648C21.0051 12.1407 19.0917 11.7169 18.6869 10.4302ZM23.4336 14.2146C23.4517 14.1997 23.746 14.2902 24.1326 14.3963C24.8316 14.5928 25.733 14.82 26.8003 15.0623C27.6077 15.2451 28.4172 15.4216 29.2286 15.5921C30.3324 15.819 31.2521 16.031 31.2704 16.031C31.3994 16.137 33.2575 21.0259 33.883 22.9029C34.1218 23.6146 34.3062 24.2199 34.2878 24.2199C34.2688 24.2353 34.0668 23.9778 33.8277 23.6297C31.6752 20.5114 28.2718 17.3478 24.3349 14.8047C23.82 14.5022 23.4336 14.2297 23.4336 14.2146ZM32.4847 16.2733C32.5767 16.2733 32.9815 16.3187 33.4779 16.4094C36.6054 16.9846 42.2165 17.8626 45.8037 18.3622C46.4109 18.4378 46.8893 18.5288 46.8893 18.5589C46.8893 18.5893 46.6684 18.695 46.3923 18.8163C45.7855 19.0735 43.3385 20.2692 42.5293 20.7234C40.4871 21.8436 38.6476 23.0545 37.323 24.1443C36.7895 24.5834 36.3294 24.9466 36.3294 24.9466C36.3294 24.9466 36.2193 24.6894 36.127 24.3713C35.4651 22.2673 34.0851 19.149 32.8341 16.9542C32.6317 16.6062 32.466 16.2883 32.466 16.2581C32.466 16.2883 32.466 16.2733 32.4847 16.2733ZM48.4161 18.7709C48.5265 18.801 48.7105 19.3157 49.0783 20.4509C49.7591 22.6459 50.0719 25.0981 49.9615 27.3838C49.9245 28.0195 49.8879 28.6098 49.8509 28.6857L49.7958 28.8368L48.8393 28.5796C46.8708 28.065 43.6699 27.2928 40.9289 26.6572C39.3649 26.309 38.0959 25.9911 38.0959 25.9609C38.0959 25.87 40.3771 23.9931 41.3521 23.2817C43.2097 21.9343 48.2504 18.7253 48.4161 18.7709ZM49.6855 18.922C49.7408 18.8769 57.3018 19.9514 60.742 20.4964C63.2993 20.905 67.0153 21.5408 67.2359 21.6166C67.3463 21.6468 66.9599 21.8284 65.7272 22.2825C60.8707 24.0839 57.2647 25.7034 53.6778 27.6714C52.7395 28.186 51.9483 28.6098 51.93 28.6098C51.9117 28.6098 51.8933 28.1709 51.8933 27.6411C51.8933 24.7651 51.1942 21.8588 49.9061 19.4066C49.7774 19.1644 49.6671 18.9374 49.6855 18.922ZM69.2411 22.101C69.2964 22.1464 69.0571 23.3726 68.8363 24.099C68.1741 26.3545 66.3897 29.7 64.2007 32.8483C63.8141 33.4083 63.4646 33.8625 63.4276 33.8776C63.3912 33.8926 62.8944 33.6655 62.324 33.3931C60.19 32.3638 57.7618 31.395 55.1125 30.4867C54.3769 30.2295 53.7328 30.0174 53.7144 29.9874C53.5854 29.8965 59.5093 26.6723 62.6367 25.1283C65.1203 23.8872 69.1674 22.0403 69.2411 22.101ZM70.6391 22.2825C70.8048 22.2825 74.153 23.0395 75.9005 23.4633C80.2239 24.523 85.1908 26.0214 88.4287 27.2324L89.7714 27.7321L88.8335 27.9136C80.9231 29.412 74.153 31.1379 67.6221 33.3175C67.0886 33.4992 66.6102 33.6506 66.5738 33.6506C66.5368 33.6506 66.7208 33.3025 66.96 32.8785C68.9285 29.4425 70.1978 25.855 70.5103 22.7971C70.529 22.5095 70.5838 22.2825 70.6391 22.2825ZM37.3046 28.5796C37.3597 28.5341 39.9169 29.0338 41.2967 29.3514C43.3938 29.8359 47.8457 31.0619 47.8457 31.1528C47.8457 31.1679 47.3491 31.5161 46.7606 31.9401C44.3507 33.59 42.0325 35.3305 39.2545 37.5406C38.4266 38.1917 37.7277 38.7214 37.691 38.7214C37.6541 38.7214 37.636 38.6304 37.6541 38.5094C38.0771 35.9663 37.9854 32.6968 37.3967 29.3818C37.3413 28.9578 37.2862 28.5947 37.3046 28.5796ZM91.0413 28.6251C91.0777 28.6552 89.8637 30.2295 89.0911 31.1225C87.9875 32.4242 86.3681 34.1501 82.7072 37.9343C80.7759 39.9322 78.6048 42.1878 77.8876 42.9446C77.1514 43.7014 76.5446 44.337 76.5259 44.337C76.5076 44.337 76.2688 44.0647 76.0111 43.7318C73.9505 41.1887 71.4853 38.9635 68.5602 36.9655C68.0083 36.5869 67.4015 36.1782 67.1991 36.0571C66.9967 35.9361 66.831 35.815 66.831 35.7999C66.831 35.7546 69.9582 34.6494 72.3317 33.8624C76.4895 32.4697 82.155 30.8047 86.405 29.7299C88.6311 29.1548 91.0043 28.5947 91.0413 28.6251ZM92.4577 28.9277C92.5311 28.9127 92.9728 29.0943 93.5063 29.3514C97.9768 31.4554 102.355 34.1651 105.814 36.9503C106.789 37.7376 109.199 39.7962 109.162 39.8113C109.162 39.8113 108.315 39.8718 107.322 39.9322C99.5772 40.4168 89.6616 41.7638 80.132 43.6558C79.4882 43.7768 78.918 43.8828 78.881 43.8828C78.8446 43.8828 79.5618 43.2926 80.4634 42.5812C86.0559 38.1461 88.6132 35.3458 91.6299 30.3504C92.0529 29.6089 92.421 28.9732 92.4577 28.9277C92.4394 28.9277 92.4394 28.9277 92.4577 28.9277ZM51.4883 32.3791C51.746 32.4243 54.1376 33.348 55.9404 34.0895C57.5961 34.7704 60.0798 35.8605 60.2085 35.9512C60.2268 35.9663 59.3436 36.3447 58.2586 36.7838C54.7998 38.2066 51.838 39.5537 48.7472 41.0977C47.8643 41.5368 47.1284 41.9002 47.1101 41.9002C47.0364 41.9002 47.0548 41.8394 47.5516 41.0977C49.2073 38.6155 50.5317 35.6486 51.2862 32.7573C51.3595 32.5303 51.4332 32.3791 51.4883 32.3791ZM49.0966 32.7422C49.1519 32.7877 48.5265 34.6494 48.1403 35.6637C47.3858 37.5861 46.1165 39.9928 44.8841 41.8093C44.5894 42.2329 44.148 42.8536 43.9089 43.2017L43.4491 43.8072L42.4188 42.99C41.2232 42.0363 40.2479 41.446 38.9972 40.916C38.5002 40.7043 38.114 40.5225 38.114 40.4924C38.114 40.3713 41.2598 38.0251 43.6698 36.3297C45.399 35.1036 49.0416 32.6969 49.0966 32.7422ZM63.7224 37.6921L64.6239 38.1763C66.6838 39.2815 69.1121 40.7497 70.9706 42.0363C72.0189 42.7476 74.0424 44.2464 74.4475 44.6096L74.6679 44.8066L73.1781 45.1546C64.7523 47.0768 58.24 48.7874 50.6421 51.0883C49.7958 51.3455 49.0783 51.5575 49.023 51.5575C48.913 51.5575 48.8207 51.6331 50.7158 50.195C55.5726 46.517 59.8772 42.46 63.0783 38.5093L63.7224 37.6921ZM59.8773 38.4792C59.914 38.5094 57.3937 41.4307 55.8851 43.0807C54.0822 45.0486 50.8811 48.3484 48.6736 50.4977C47.754 51.3909 46.9631 52.1326 46.9261 52.1478C46.8708 52.1629 46.8524 51.9359 46.8524 51.5877C46.8524 49.7559 46.2823 47.8033 45.2887 46.1384C44.8655 45.4421 44.7919 45.2755 44.8842 45.1999C45.2336 44.9425 50.587 42.4298 53.9719 40.9313C56.2531 39.9323 59.8217 38.4489 59.8773 38.4792ZM36.6237 43.1717C36.6791 43.1717 37.1022 43.3532 37.5806 43.5652C38.7579 44.095 39.8066 44.6853 40.7447 45.3212C40.7814 45.3513 40.3033 45.6693 39.6778 46.0475C37.93 47.0768 35.281 48.7269 33.7359 49.7411C32.1166 50.8007 32.0618 50.831 32.2455 50.604C33.4599 49.0751 34.0667 48.2123 34.7108 47.1073C35.281 46.1236 35.8512 44.9579 36.2559 43.9437C36.403 43.5047 36.5871 43.1717 36.6237 43.1717ZM42.8237 47.1677C42.9154 47.1528 43.0261 47.2888 43.5225 47.8944C44.5712 49.1808 45.3807 50.9067 45.5833 52.2993L45.6197 52.6021L43.0997 53.4044C38.5922 54.8423 34.4349 56.2653 31.6198 57.3247C30.829 57.6275 29.4492 58.1724 28.5479 58.5359C27.6464 58.9141 26.9105 59.2017 26.9105 59.1867C26.9105 59.1716 27.4807 58.8234 28.1797 58.3994C33.6807 55.1149 38.4452 51.5121 42.0141 47.9096C42.4005 47.531 42.7502 47.1829 42.7867 47.1678L42.8237 47.1677ZM39.9722 47.743C40.0459 47.8036 37.9487 49.7561 36.5137 50.9519C32.9632 53.9341 29.4493 56.2653 25.0892 58.5359C24.5374 58.8234 24.0407 59.0806 23.9854 59.1111C23.8566 59.1716 24.0221 59.0201 25.9354 57.3096C27.1497 56.2348 28.0694 55.3267 29.1181 54.2067C29.8171 53.4651 29.946 53.3591 30.9579 52.7685C33.6623 51.1639 39.8986 47.6824 39.9722 47.743Z"
        fill="url(#paint2_radial_0_1)" />
    <path
        d="M139.924 61.4697C139.573 61.4697 139.221 61.4981 138.873 61.4981C131.782 61.8181 126.999 64.4607 124.203 69.6212C121.811 74.2885 122.072 80.3893 124.23 85.0851C126.739 89.6735 130.792 92.0951 137.559 93.0098C138.99 93.2083 139.95 93.8739 142.723 96.6153L146.135 100H152.323L148.208 96.4877C145.934 94.5619 144.094 92.885 144.094 92.7377C144.094 92.5905 144.964 92.2677 146.018 91.9959C149.49 91.1062 152.373 88.8349 154.39 85.3539C156.022 82.5587 156.256 81.6946 156.49 78.2168C157.102 67.8648 150.657 61.3928 139.923 61.4667L139.924 61.4697ZM145.349 88.5408C142.338 89.7754 137.967 90.0219 135.114 89.1354C132.164 88.2179 129.307 85.6235 128.023 82.6864C126.595 79.4746 126.798 73.5496 128.431 70.8813C131.056 66.6329 134.529 64.6788 139.602 64.6788C147.128 64.6788 151.41 68.5818 151.968 75.9173C152.41 82.0408 149.988 86.6347 145.352 88.5382L145.349 88.5408ZM252.242 70.3121C249.646 70.3121 247.66 71.2017 246.321 72.9544L245.271 74.3424V70.734H240.779V92.3728H245.268V85.4563C245.268 79.1318 245.361 78.3926 246.405 76.6619C247.844 74.2885 250.318 73.1049 252.71 73.6714L254.316 74.0679V70.3179H252.242V70.3121ZM225.852 70.1137C224.972 70.1137 224.038 70.213 223.109 70.3859C217.098 71.7168 213.71 76.5883 213.917 81.6016C213.917 85.7992 214.88 87.8976 217.272 90.0985C222.172 93.5028 226.604 93.7746 232.584 91.948C233.605 91.5799 234.715 91.155 234.715 91.155V87.7507L232.584 88.6853C227.745 90.4696 224.099 90.4696 221.178 88.368C219.316 86.762 218.496 84.8361 218.118 82.6385H236.23V79.7208C236.23 73.7731 232.003 70.0175 225.848 70.1137H225.852ZM218.526 79.602C218.526 79.602 219.195 75.8918 221.677 74.4359C222.872 73.722 224.243 73.3767 225.584 73.3767C226.929 73.3767 228.27 73.7448 229.377 74.4615C231.652 75.9427 232.033 79.5739 232.033 79.5739H218.526V79.602ZM110.232 75.6993C105.362 73.201 103.201 71.3996 103.465 69.2754C104.221 63.3984 112.797 64.2113 117.547 66.4348L117.581 62.481C117.581 62.481 114.955 61.5181 111.192 61.467C105.419 61.3933 101.686 62.9963 99.9367 66.2591C97.3676 71.074 99.6424 74.7049 107.864 78.7553C112.48 81.0294 114.52 83.0037 114.52 85.1561C114.52 89.6029 108.188 91.155 101.656 88.3651C100.312 87.7986 99.1743 87.3256 99.1141 87.3256C98.8798 88.5861 99.0006 91.6023 99.0006 91.6023C99.0006 91.6023 101.008 92.3162 104.018 92.8086C111.483 94.069 118.276 91.1037 118.919 86.2888C119.477 81.7686 117.547 79.3978 110.232 75.696V75.6993ZM291.998 70.0629C291.122 70.0629 290.192 70.1648 289.222 70.3376C283.218 71.6688 279.836 76.5404 280.067 81.5537C280.067 85.7455 281.027 87.8243 283.418 90.022C288.319 93.4294 292.751 93.7039 298.761 91.8745C299.778 91.5065 300.885 91.0875 300.885 91.0875V87.6774L298.758 88.6174C293.908 90.3962 290.262 90.3962 287.352 88.2947C285.479 86.6916 284.666 84.7883 284.288 82.5648H302.37V79.6476C302.37 73.7283 298.142 69.9697 291.988 70.0689L291.998 70.0629ZM284.673 79.551C284.673 79.551 285.349 75.8464 287.827 74.3621C289.018 73.6458 290.389 73.3 291.73 73.3C293.068 73.3 294.416 73.6682 295.524 74.3876C297.798 75.869 298.18 79.5254 298.18 79.5254H284.677L284.673 79.551ZM202.337 75.7474C197.468 73.255 195.313 71.4478 195.574 69.3234C196.33 63.4435 204.906 64.2594 209.656 66.4828L209.69 62.5291C209.69 62.5291 207.064 61.566 203.301 61.5206C197.528 61.447 193.795 63.0501 192.042 66.3128C189.477 71.1275 191.781 74.7587 199.976 78.8089C204.586 81.0806 206.626 83.0291 206.626 85.1815C206.626 89.6283 200.297 91.2059 193.765 88.3904C192.427 87.824 191.29 87.3566 191.223 87.3566C190.989 88.6168 191.109 91.6334 191.109 91.6334C191.109 91.6334 193.093 92.3217 196.093 92.8398C203.565 94.1031 210.362 91.1404 211.001 86.3255C211.556 81.8278 209.63 79.4573 202.338 75.7526L202.337 75.7474ZM318.392 70.2612C315.796 70.2612 313.786 71.1531 312.472 72.9065L311.421 74.2886V70.6861H306.929V92.319H311.418V85.4028C311.418 79.081 311.508 78.3389 312.555 76.6112C313.994 74.2407 316.468 73.0541 318.86 73.6232L320.465 74.0196V70.2613L318.392 70.2612ZM166.615 75.6226V61.8405H162.086V92.3672H181.132V88.7619H166.615V75.6226ZM271.347 79.9191L267.615 88.1441L264.025 79.8738L260.38 70.7087H255.744C258.748 77.9198 262.015 85.2552 265.31 92.3672C266.738 92.3954 268.17 92.3672 269.598 92.3672L274.639 81.6498L279.773 70.7114H275.341C275.341 70.7114 273.384 75.0562 271.344 79.922L271.347 79.9191ZM177.051 53.5221C177.78 53.5221 178.389 53.3241 178.89 52.8993C179.385 52.4799 179.646 51.9871 179.646 51.3697C179.646 50.7522 179.385 50.2367 178.89 49.8402C178.389 49.4438 177.81 49.2453 177.084 49.2453C176.349 49.2453 175.74 49.4438 175.244 49.8628C174.743 50.2822 174.515 50.7977 174.515 51.3925C174.515 52.0156 174.75 52.5308 175.244 52.922C175.713 53.3183 176.322 53.5167 177.051 53.5167V53.5221ZM175.445 50.0102C175.88 49.6422 176.409 49.472 177.084 49.472C177.72 49.472 178.248 49.6422 178.69 50.0102C179.125 50.3784 179.359 50.8259 179.359 51.3697C179.359 51.9135 179.125 52.3838 178.69 52.7518C178.249 53.1197 177.72 53.2955 177.084 53.2955C176.439 53.2955 175.914 53.1256 175.479 52.7518C175.044 52.3838 174.81 51.9135 174.81 51.3697C174.81 50.8259 175.011 50.3786 175.445 50.0102ZM176.526 51.5681H176.82C177.027 51.5681 177.231 51.7379 177.405 52.0609L177.757 52.7291H178.308L177.874 51.9868C177.697 51.6897 177.523 51.5169 177.319 51.4685C177.576 51.4175 177.78 51.344 177.927 51.1965C178.074 51.0693 178.128 50.8964 178.128 50.7009C178.128 50.4744 178.044 50.3046 177.867 50.1799C177.666 50.0383 177.345 49.9619 176.93 49.9619H176.001V52.7291H176.469V51.5679L176.526 51.5681ZM176.526 50.2822H176.934C177.228 50.2822 177.436 50.3331 177.549 50.4066C177.66 50.4803 177.69 50.5768 177.69 50.7522C177.69 51.0722 177.455 51.2225 177.021 51.2225H176.519V50.2822H176.526ZM101.716 51.3215C101.716 50.3586 101.682 49.6422 101.656 49.2201H101.682C101.799 49.7182 101.943 50.0895 102.06 50.3358L106.408 58.5609H107.138L111.486 50.2623C111.603 50.036 111.72 49.6959 111.864 49.2228H111.897C111.81 50.0443 111.78 50.758 111.78 51.3272V58.5865H113.268V47.7954H111.402L107.405 55.3009C107.258 55.5981 107.054 56.0431 106.793 56.6322H106.733C106.646 56.3404 106.442 55.8957 106.151 55.3518L102.244 47.7697H100.261V58.5606H101.692V51.3269L101.716 51.3215ZM116.53 51.3417H117.814V58.0625H116.53V51.3417ZM117.172 48.8773C117.44 48.8773 117.667 48.8007 117.841 48.6509C118.018 48.5034 118.136 48.3109 118.136 48.0844C118.136 47.8634 118.048 47.6651 117.845 47.518C117.664 47.3678 117.433 47.2911 117.169 47.2911C116.908 47.2911 116.674 47.3678 116.5 47.518C116.323 47.6651 116.206 47.8634 116.206 48.0844C116.206 48.3309 116.296 48.5034 116.5 48.6509C116.701 48.8007 116.908 48.8773 117.169 48.8773H117.172ZM126.973 58.2099V57.0258C126.27 57.4705 125.514 57.6917 124.731 57.6917C123.795 57.6917 123.036 57.4199 122.48 56.8989C121.929 56.3834 121.634 55.6665 121.634 54.7744C121.634 53.8398 121.929 53.0974 122.537 52.531C123.123 51.9872 123.882 51.7153 124.812 51.7153C125.571 51.7153 126.3 51.9138 126.973 52.3105V51.0501C126.361 50.7782 125.662 50.6535 124.872 50.6535C123.414 50.6535 122.277 51.0501 121.427 51.8151C120.584 52.5797 120.149 53.6192 120.149 54.8739C120.149 55.9897 120.527 56.9273 121.313 57.644C122.133 58.3802 123.18 58.7542 124.464 58.7542C125.457 58.7309 126.27 58.5552 126.973 58.2099ZM130.648 54.627C130.648 53.7404 130.882 53.024 131.317 52.5308C131.726 52.0864 132.22 51.8626 132.806 51.8626C133.301 51.8626 133.652 51.9391 133.909 52.1118V50.8259C133.709 50.7523 133.418 50.7269 133.04 50.7269C132.515 50.7269 132.047 50.8766 131.635 51.1517C131.2 51.4431 130.853 51.8881 130.648 52.4546H130.615V50.8768H129.16V58.5807H130.618V54.627H130.648ZM139.02 58.7336C140.392 58.7336 141.496 58.3597 142.315 57.6179C143.131 56.8811 143.539 55.8901 143.539 54.6549C143.539 53.3949 143.165 52.4318 142.402 51.7149C141.646 50.9988 140.596 50.6528 139.224 50.6528C137.853 50.6528 136.749 50.9985 135.93 51.6669C135.053 52.4036 134.592 53.443 134.592 54.777C134.592 55.9383 134.966 56.9014 135.756 57.6179C136.572 58.3597 137.652 58.7308 139.02 58.7308V58.7336ZM136.947 52.4573C137.502 51.9616 138.231 51.7151 139.134 51.7151C140.071 51.7151 140.773 51.9616 141.295 52.4573C141.82 52.9757 142.081 53.715 142.081 54.7034C142.081 55.6435 141.847 56.3828 141.352 56.8785C140.857 57.3969 140.128 57.6714 139.164 57.6714C138.228 57.6714 137.502 57.3966 136.947 56.8785C136.395 56.3574 136.131 55.6435 136.131 54.7034C136.074 53.7687 136.365 53.0042 136.947 52.4573ZM149.925 58.0625C150.48 57.6435 150.774 57.128 150.774 56.4818C150.774 55.9154 150.54 55.4453 150.105 55.0743C149.751 54.7772 149.202 54.5078 148.41 54.2359C147.707 53.987 147.272 53.7657 147.038 53.5929C146.804 53.3948 146.66 53.1486 146.66 52.8C146.66 52.48 146.807 52.2336 147.095 52.0353C147.389 51.8373 147.764 51.7411 148.266 51.7411C149.052 51.7411 149.724 51.9165 150.339 52.2876V51.0526C149.751 50.8037 149.112 50.6847 148.383 50.6847C147.446 50.6847 146.657 50.9029 146.074 51.3245C145.462 51.7441 145.172 52.2878 145.172 52.9276C145.172 53.4941 145.372 53.9644 145.753 54.3097C146.074 54.6044 146.623 54.9048 147.386 55.1735C148.115 55.4456 148.61 55.6918 148.874 55.8899C149.135 56.0885 149.252 56.3346 149.252 56.6267C149.252 57.3458 148.67 57.7171 147.533 57.7171C146.656 57.7171 145.871 57.4734 145.168 56.9808V58.3115C145.803 58.6348 146.566 58.7818 147.409 58.7818C148.489 58.7338 149.335 58.51 149.917 58.0653L149.925 58.0625ZM156.868 50.6531C155.497 50.6531 154.393 50.9988 153.574 51.6671C152.704 52.4039 152.236 53.4433 152.236 54.7773C152.236 55.9385 152.614 56.9016 153.4 57.6181C154.219 58.36 155.296 58.731 156.668 58.731C158.072 58.731 159.143 58.3574 159.962 57.615C160.782 56.8788 161.19 55.8875 161.19 54.6524C161.19 53.3921 160.809 52.4292 160.052 51.7126C159.263 50.9959 158.213 50.6503 156.875 50.6503L156.868 50.6531ZM159.698 54.7035C159.698 55.6436 159.464 56.383 158.969 56.8786C158.474 57.397 157.745 57.6715 156.781 57.6715C155.844 57.6715 155.119 57.3967 154.563 56.8786C154.012 56.3575 153.747 55.6436 153.747 54.7035C153.747 53.7122 154.039 52.9476 154.624 52.4318C155.175 51.9391 155.905 51.6897 156.811 51.6897C157.714 51.6897 158.44 51.9388 158.965 52.4318C159.434 52.9756 159.695 53.7149 159.695 54.7035H159.698ZM163.638 58.5581H165.093V51.8882H167.224V50.8515H165.093V49.6619C165.093 48.5802 165.588 48.0364 166.612 48.0364C166.956 48.0364 167.307 48.1099 167.568 48.2346V47.1217C167.307 47.0226 166.956 47 166.518 47C165.732 47 165.09 47.1984 164.564 47.6174C163.952 48.1102 163.628 48.7503 163.628 49.6172V50.8805H162.089V51.917H163.628V58.5618L163.638 58.5581ZM169.615 56.4565C169.615 57.9635 170.402 58.7309 172.007 58.7309C172.589 58.7309 173.027 58.6518 173.378 58.4761V57.4169C173.111 57.5869 172.793 57.6663 172.442 57.6663C171.947 57.6663 171.599 57.5668 171.395 57.3431C171.187 57.1225 171.071 56.7483 171.071 56.2328V51.8854H173.378V50.8486H171.071V48.5773C170.569 48.7245 170.077 48.8493 169.612 48.9736V50.8485H168.04V51.8852H169.612V56.4538L169.615 56.4565ZM326.152 70.6575C325.657 70.2612 325.072 70.0628 324.346 70.0628C323.61 70.0628 323.001 70.2612 322.506 70.6859C322.011 71.1023 321.777 71.6204 321.777 72.2155C321.777 72.833 322.011 73.3485 322.502 73.7448C322.998 74.1413 323.606 74.3398 324.342 74.3398C325.068 74.3398 325.68 74.1413 326.182 73.7222C326.674 73.2973 326.934 72.8074 326.934 72.1929C326.908 71.5697 326.643 71.0541 326.148 70.6577L326.152 70.6575ZM325.918 73.575C325.483 73.943 324.954 74.1129 324.312 74.1129C323.677 74.1129 323.148 73.943 322.707 73.575C322.272 73.201 322.038 72.7337 322.038 72.187C322.038 71.6488 322.238 71.2016 322.68 70.8276C323.115 70.4597 323.64 70.2894 324.312 70.2894C324.948 70.2894 325.477 70.4597 325.918 70.8276C326.352 71.2016 326.587 71.6488 326.587 72.187C326.587 72.7593 326.386 73.201 325.918 73.575ZM324.606 72.3145C324.867 72.2635 325.075 72.1644 325.219 72.0427C325.366 71.9151 325.42 71.7422 325.42 71.5444C325.42 71.3234 325.336 71.1478 325.159 71.026C324.958 70.8843 324.634 70.8078 324.223 70.8078H323.293V73.572H323.761V72.4107H324.052C324.253 72.4107 324.453 72.5805 324.634 72.9035L324.981 73.5691H325.537L325.102 72.8268C324.952 72.504 324.778 72.3565 324.601 72.3083L324.606 72.3145ZM324.285 72.0654H323.784V71.1309H324.195C324.486 71.1309 324.69 71.176 324.807 71.2526C324.924 71.3262 324.951 71.4226 324.951 71.5982C324.951 71.9182 324.717 72.0657 324.282 72.0657L324.285 72.0654ZM242.91 50.5315H243.318V47.7643H244.398V47.4187H241.83V47.7643H242.91V50.5315ZM245.385 48.4526C245.385 48.1833 245.385 47.9624 245.362 47.8381C245.389 47.9852 245.449 48.0846 245.476 48.1581L246.73 50.5315H246.931L248.188 48.1352C248.222 48.0617 248.249 47.9653 248.305 47.8381C248.278 48.0846 248.278 48.2823 248.278 48.4328V50.5287H248.713V47.4187H248.188L247.051 49.5657C247.024 49.6423 246.934 49.7921 246.877 49.9623H246.843C246.82 49.8629 246.76 49.7639 246.676 49.5943L245.539 47.419H244.95V50.5345H245.362V48.4556L245.385 48.4526Z"
        fill="#231F1F" />
    <defs>
        <linearGradient id="paint0_linear_0_1" x1="18.3111" y1="90.108" x2="26.1448" y2="84.4824"
            gradientUnits="userSpaceOnUse">
            <stop stop-color="#909CA9" />
            <stop offset="1" stop-color="#EDEDEE" />
        </linearGradient>
        <linearGradient id="paint1_linear_0_1" x1="18.5126" y1="9.43945" x2="25.594" y2="9.43945"
            gradientUnits="userSpaceOnUse">
            <stop stop-color="#939FAB" />
            <stop offset="1" stop-color="#DCDEE1" />
        </linearGradient>
        <radialGradient id="paint2_radial_0_1" cx="0" cy="0" r="1" gradientUnits="userSpaceOnUse"
            gradientTransform="translate(54.2456 36.1624) rotate(-172.954) scale(9.09735 15.082)">
            <stop stop-color="#EE352C" />
            <stop offset="1" stop-color="#A91D22" />
        </radialGradient>
    </defs>
</svg>
    