<svg width="226" height="92" viewBox="0 0 226 92" fill="none" xmlns="http://www.w3.org/2000/svg">
    <path
        d="M45.155 83.0683H38.058C37.807 73.4436 37.116 64.3952 35.986 55.9164H35.923L25.117 83.0683H19.714L8.97198 55.9164H8.91101C8.11401 64.0569 7.61199 73.1075 7.40399 83.0683H0.93399C1.35099 70.9556 2.39901 59.5999 4.07401 49H12.87L23.108 74.0331H23.171L33.472 49H41.888C43.732 61.4157 44.821 72.7726 45.155 83.0683ZM75.934 57.9328C73.045 70.5314 69.232 79.6856 64.501 85.3999C60.814 89.7985 56.775 92 52.377 92C51.205 92 49.758 91.7157 48.043 91.1516V88.1137C48.881 88.2107 49.865 88.2658 50.995 88.2658C53.049 88.2658 54.7 87.8118 55.959 86.9017C57.465 85.7932 58.218 84.547 58.218 83.1686C58.218 82.2232 57.631 80.2906 56.46 77.364L48.672 57.9317H55.644L61.234 72.4652C62.49 75.7652 63.014 78.0692 62.804 79.3815C65.861 72.8222 67.997 65.67 69.213 57.9306H75.934V57.9328Z"
        fill="#5D87A1" />
    <path
        d="M184.934 86.9016H162.985V49.5556H170.369V82.3045H184.934V86.9016ZM157.239 87.8039L148.752 84.4158C149.504 83.9158 150.224 83.3746 150.872 82.7477C154.48 79.3198 156.279 74.2504 156.279 67.5359C156.279 55.1806 150.285 49 138.294 49C132.414 49 127.827 50.5678 124.546 53.7046C120.941 57.135 119.142 62.1863 119.142 68.8646C119.142 75.4293 120.737 80.2451 123.928 83.2997C126.847 86.067 131.247 87.4524 137.132 87.4524C139.327 87.4524 141.341 87.235 143.176 86.7965L154.226 92L157.239 87.8039ZM129.745 79.4285C127.876 76.9959 126.941 73.0897 126.941 67.7038C126.941 58.3006 130.472 53.5935 137.543 53.5935C141.238 53.5935 143.947 54.7192 145.679 56.9659C147.545 59.4021 148.485 63.2733 148.485 68.5843C148.485 78.0649 144.95 82.8057 137.885 82.8057C134.187 82.8069 131.479 81.6848 129.745 79.4285ZM115.924 76.5502C115.924 79.7172 114.488 82.3153 111.618 84.3506C108.745 86.3774 104.893 87.3932 100.065 87.3932C95.55 87.3932 91.172 86.2264 86.934 83.9049L88.919 80.698C92.565 82.1752 95.867 82.9096 98.831 82.9096C101.612 82.9096 103.786 82.4108 105.363 81.4215C106.939 80.4286 107.878 79.036 107.878 77.2749C107.878 75.0561 105.965 73.1597 102.456 71.5714C99.22 70.134 92.749 67.1288 92.749 67.1288C89.241 65.061 87.485 62.8409 87.485 59.1835C87.485 56.1566 88.795 53.7131 91.415 51.8542C94.039 49.988 97.424 49.058 101.574 49.058C105.859 49.058 109.755 49.9868 113.264 51.8252L111.484 55.0333C108.482 54.0018 105.52 53.486 102.598 53.486C100.231 53.486 98.404 53.9462 97.133 54.8702C95.852 55.7906 95.062 56.9683 95.062 58.4129C95.062 60.6209 97.015 62.5414 100.619 64.1611C103.898 65.6009 110.531 68.658 110.531 68.658C114.128 70.7222 115.924 72.9218 115.924 76.5502Z"
        fill="#F8981D" />
    <path
        d="M219.381 46.406C214.863 46.3215 211.365 46.6564 208.429 47.5711C207.581 47.8204 206.233 47.8204 206.115 48.6094C206.573 48.9432 206.626 49.4818 207.023 49.9425C207.7 50.7738 208.881 51.8921 209.958 52.4752C211.141 53.1429 212.329 53.8039 213.574 54.3859C215.77 55.3863 218.258 55.9683 220.398 56.9654C221.645 57.5452 222.884 58.2952 224.132 58.9195C224.745 59.2522 225.138 59.7919 225.934 60V59.8731C225.536 59.4992 225.422 58.9584 225.031 58.5422L223.335 57.3382C221.697 55.7179 219.662 54.3036 217.466 53.1418C215.659 52.2249 211.706 50.9785 210.973 49.4451L210.859 49.3605C212.101 49.2748 213.574 48.9432 214.754 48.6884C216.675 48.3156 218.426 48.4002 220.396 48.0274C221.303 47.8605 222.202 47.6513 223.112 47.4454V47.0704C222.09 46.3215 221.362 45.3266 220.288 44.6189C217.414 42.7905 214.246 41.0023 210.973 39.5056C209.221 38.6721 206.966 38.1357 205.1 37.4268C204.427 37.1765 203.294 37.0529 202.898 36.6368C201.886 35.722 201.316 34.518 200.582 33.4352C198.95 31.1506 197.365 28.6157 195.956 26.1998C194.938 24.5796 194.318 22.9616 193.076 21.4626C187.259 14.3963 180.941 10.1165 171.231 5.91571C169.144 5.04101 166.661 4.66821 164.009 4.20981L159.774 4.04511C158.87 3.75351 157.965 2.96231 157.176 2.58841C153.955 1.09281 145.661 -2.14878 143.291 2.13101C141.765 4.83631 145.549 7.49591 146.848 8.86791C147.808 9.82051 149.051 10.9044 149.722 11.986C150.12 12.6926 150.232 13.4427 150.629 14.1893C151.533 16.0188 152.377 18.0541 153.565 19.7611C154.185 20.6313 154.86 21.5461 155.652 22.3339C156.105 22.7946 156.894 22.9983 157.066 23.7494C156.279 24.5773 156.217 25.827 155.765 26.8664C153.734 31.5635 154.528 37.3823 157.406 40.8342C158.307 41.8736 160.455 44.1615 163.33 43.2846C165.874 42.5368 165.311 40.1677 166.042 38.0901C166.21 37.5882 166.099 37.2588 166.438 36.9294V37.0107C167.225 38.1735 168.02 39.2941 168.75 40.4603C170.501 42.4956 173.55 44.6167 176.09 46.0266C177.443 46.7788 178.514 48.0652 180.208 48.5248V48.4002H180.096C179.753 48.0274 179.252 47.8605 178.801 47.5711C177.783 46.8222 176.656 45.9075 175.865 45.0773C173.499 42.7483 171.405 40.1699 169.546 37.5092C168.636 36.2183 167.852 34.8073 167.119 33.5187C166.778 33.0213 166.778 32.2712 166.211 32.0209C165.362 32.9345 164.124 33.7257 163.505 34.8451C162.43 36.6356 162.319 38.8379 161.92 41.128L161.698 41.2081C159.899 40.8754 159.274 39.5056 158.591 38.3427C156.9 35.3893 156.616 30.6488 158.083 27.2414C158.476 26.3701 160.176 23.6259 159.497 22.7957C159.157 22.0001 158.027 21.5472 157.408 20.9207C156.679 20.1328 155.881 19.1357 155.374 18.2611C154.02 15.9342 153.338 13.3559 151.88 11.0301C151.199 9.94621 150.016 8.82451 149.057 7.82641C147.982 6.70471 146.798 5.91461 145.948 4.58481C145.667 4.12741 145.272 3.37961 145.724 2.88221C145.834 2.54831 146.064 2.42371 146.514 2.34021C147.246 1.88512 149.336 2.46381 150.068 2.71411C152.161 3.33731 153.911 3.91931 155.658 4.79171C156.448 5.20901 157.296 5.99911 158.31 6.20721H159.497C161.3 6.49661 163.333 6.28741 165.029 6.66351C168.02 7.37121 170.729 8.40951 173.159 9.53011C180.553 12.9831 186.65 17.8894 190.766 23.7494C191.441 24.7042 191.728 25.5789 192.345 26.5748C193.534 28.6135 195.004 30.6922 196.185 32.6874C197.371 34.6404 198.501 36.6345 200.195 38.257C201.04 39.1294 204.434 39.5868 205.955 40.0442C207.081 40.4169 208.834 40.7486 209.849 41.2059C211.77 42.0772 213.683 43.0776 215.488 44.0358C216.388 44.5343 219.213 45.5737 219.381 46.406ZM161.8 10.2801C161.021 10.2741 160.244 10.3445 159.49 10.4893V10.5727H159.599C160.054 11.2371 160.844 11.6978 161.407 12.2776C161.862 12.9441 162.257 13.6051 162.702 14.2706L162.811 14.1882C163.608 13.7732 164.003 13.1077 164.003 12.1095C163.66 11.8157 163.608 11.5286 163.322 11.2371C162.99 10.8209 162.257 10.6139 161.8 10.2801Z"
        fill="#5D87A1" />
    <path
        d="M208.506 92H209.934V85.0018H207.791L206.043 89.7775L204.144 85.0018H202.08V92H203.429V86.6756H203.505L205.495 92H206.523L208.506 86.6756V92ZM196.996 92H198.508V86.1879H200.487V85H194.934V86.1879H196.993L196.996 92Z"
        fill="#F8981D" />
</svg>
    